<svg id="e3dzwKWu7UH1" xmlns="http://www.w3.org/2000/svg" xmlns:xlink="http://www.w3.org/1999/xlink" viewBox="0 0 784.39764 733.6066" shape-rendering="geometricPrecision" text-rendering="geometricPrecision"><path id="e3dzwKWu7UH2" d="M832.54583,604.41452C832.54583,604.41452,929.58643,609.43152,906.9836,639.97966C884.38077,670.5278,824.98869,622.05991,824.98869,622.05991Z" transform="matrix(1 0 0 1 -208.348872 -87.398649)" fill="rgb(255,184,184)" stroke="none" stroke-width="1"/><path id="e3dzwKWu7UH3" d="M653.71677,313.44812L673.46885,318.38612C673.46885,318.38612,684.9909,352.95227,693.22094,384.2264C701.45098,415.50053,717.91105,509.323,717.91105,509.323L845.5213,598.75563L830.30118,632.8033L660.30118,565.8033L622.44263,417.14657Z" transform="matrix(1 0 0 1 -207.801 -83.1967)" fill="rgb(87,90,137)" stroke="none" stroke-width="1"/><polygon id="e3dzwKWu7UH4" points="464.5,291.607 457.138,445.772 472.5,491.607 427.5,458.607 464.5,291.607" opacity="0.2" fill="rgb(0,0,0)" stroke="none" stroke-width="1"/><path id="e3dzwKWu7UH5" d="M698.982,648.41057C698.982,648.41057,720.3801,706.02082,723.67211,745.52499C726.96412,785.02916,730.25611,816.3033,730.25611,816.3033L629.84966,816.3033L610.09758,786.67517L610.09758,816.3033L493.23107,816.3033C493.23107,816.3033,460.31093,709.31284,473.479,696.14478C486.64707,682.97672,611.74361,627.01248,611.74361,627.01248Z" transform="matrix(1 0 0 1 -207.801 -83.1967)" fill="rgb(47,46,65)" stroke="none" stroke-width="1"/><rect id="e3dzwKWu7UH6" width="581" height="2" rx="0" ry="0" transform="matrix(1 0 0 1 101.5 731.607)" fill="rgb(63,61,86)" stroke="none" stroke-width="1"/><circle id="e3dzwKWu7UH7" r="62.5483" transform="matrix(1 0 0 1 365.261 105.155)" fill="rgb(255,184,184)" stroke="none" stroke-width="1"/><path id="e3dzwKWu7UH8" d="M525.32821,214.68769L520.39021,287.112L582.93848,371.05837L614.2126,292.05C614.2126,292.05,586.23047,273.94392,602.6906,236.08576Z" transform="matrix(1 0 0 1 -207.801 -83.1967)" fill="rgb(255,184,184)" stroke="none" stroke-width="1"/><path id="e3dzwKWu7UH9" d="M708.03116,662.4C708.03116,677.22,666.88116,700.26005,666.88116,700.26005L666.88116,708.49005L650.42116,716.72005L614.21116,644.30005L604.34116,723.30005C604.34116,723.30005,531.91116,734.83005,508.87116,723.30005C485.82116,711.78005,474.30116,716.72005,441.38116,705.20005C408.46116,693.68005,454.55116,538.95005,454.55116,538.95005L421.63116,300.28005L493.55116,264.32005L497.34116,262.42005L507.23116,260.60005L522.39116,257.80005L573.06116,292.05005L577.14116,313.45005L579.65116,326.62005L592.81116,311.80005L602.75116,279.11005L673.47116,318.39005L653.72116,476.40005C653.72116,476.40005,708.03116,647.59,708.03116,662.4Z" transform="matrix(1 0 0 1 -207.801 -83.1967)" fill="rgb(87,90,137)" stroke="none" stroke-width="1"/><path id="e3dzwKWu7UH10" d="M466.072,713.42785C466.072,713.42785,541.78833,774.33012,505.57617,785.85217C469.36401,797.37422,449.61193,723.3039,449.61193,723.3039Z" transform="matrix(1 0 0 1 -207.801 -83.1967)" fill="rgb(255,184,184)" stroke="none" stroke-width="1"/><path id="e3dzwKWu7UH11" d="M438.08983,303.57207L421.62976,300.28007C421.62976,300.28007,396.93965,313.44813,395.29364,339.78424C393.64763,366.12035,372.24954,550.47316,372.24954,550.47316L441.38184,736.47196L497.34609,715.07387L443.02785,540.5971L484.178,389.16445Z" transform="matrix(1 0 0 1 -207.801 -83.1967)" fill="rgb(87,90,137)" stroke="none" stroke-width="1"/><circle id="e3dzwKWu7UH12" r="6" transform="matrix(1 0 0 1 372.5 264.607)" fill="rgb(47,46,65)" stroke="none" stroke-width="1"/><circle id="e3dzwKWu7UH13" r="6" transform="matrix(1 0 0 1 372.5 303.607)" fill="rgb(47,46,65)" stroke="none" stroke-width="1"/><circle id="e3dzwKWu7UH14" r="6" transform="matrix(1 0 0 1 406.5 560.607)" fill="rgb(47,46,65)" stroke="none" stroke-width="1"/><path id="e3dzwKWu7UH15" d="M520.2536,124.27371L508.69119,119.64476C508.69119,119.64476,532.86707,93.02848,566.50336,95.343L557.043,84.92787C557.043,84.92787,580.1678,75.67012,601.19033,99.97187C612.24148,112.74672,625.02776,127.76297,632.99866,144.67854L645.38119,144.67854L640.21319,156.05791L658.30119,167.43728L639.73559,165.39328C640.84188,171.624751,641.011688,177.986466,640.2394,184.26808C639.442956,190.551609,636.236422,196.279925,631.29653,200.24408L631.29653,200.24408C631.29653,200.24408,616.957,170.56276,616.957,165.93382L616.957,177.50613C616.957,177.50613,605.3946,167.09113,605.3946,160.14777L599.0879,168.24838L557.043,168.24838L563.3497,157.83338L539.17377,161.305L548.63418,148.57541L511.20318,201.14033C511.20318,201.14033,489.771,141.63206,520.2536,124.27371Z" transform="matrix(1 0 0 1 -207.801 -83.1967)" fill="rgb(47,46,65)" stroke="none" stroke-width="1"/><g id="e3dzwKWu7UH16"><g id="e3dzwKWu7UH17" transform="matrix(1 0 0 1 7.539665 -126.852873)"><circle id="e3dzwKWu7UH18" r="100" transform="matrix(1 0 0 1 684.398 383.545)" fill="rgb(63,61,86)" stroke="none" stroke-width="1"/><circle id="e3dzwKWu7UH19" r="86" transform="matrix(1 0 0 1 686.398 384.545)" opacity="0.1" fill="rgb(0,0,0)" stroke="none" stroke-width="1"/><path id="e3dzwKWu7UH20" d="M888.07791,517.48969L888.07791,504.97263C881.75057,504.84919,875.20485,502.61763,871.38682,499.51948L874.00482,491.21632C878.542103,494.616552,884.044612,496.482955,889.71424,496.54482C897.46002,496.54482,902.69649,491.46382,902.69649,484.39989C902.69649,477.58345,898.44169,473.37015,890.36886,469.65182C879.24129,464.69482,872.36852,458.99362,872.36852,448.21197C872.36852,437.9253,878.80505,430.11771,888.84176,428.25885L888.84176,415.74179L895.60533,415.74179L895.60533,427.76328C900.64886,427.832133,905.568361,429.33665,909.78765,432.10062L907.05995,440.28034C903.013356,437.510322,898.218208,436.040298,893.31441,436.06644C884.91454,436.06644,881.7506,441.76707,881.7506,446.72464C881.7506,453.16894,885.78701,456.39109,895.27829,460.85309C906.51452,466.05809,912.18776,472.50244,912.18776,483.53217C912.18776,493.32267,906.18747,502.49417,894.95076,504.59989L894.95076,517.48969Z" transform="matrix(1 0 0 1 -207.801 -83.1967)" fill="rgb(168,170,4)" stroke="none" stroke-width="1"/></g></g><polygon id="e3dzwKWu7UH21" points="250.005,504.87 290,629.803 258,499.803 250.005,504.87" opacity="0.2" fill="rgb(0,0,0)" stroke="none" stroke-width="1"/><g id="e3dzwKWu7UH22" transform="matrix(1 0 0 1 0 0.000001)"><path id="e3dzwKWu7UH23" d="M253.89444,344L228.50772,344C226.203913,343.997432,224.336948,342.130467,224.33438,339.82666L224.33438,303.3335C224.336948,301.029693,226.203913,299.162728,228.50772,299.16016L253.89444,299.16016C256.198247,299.162728,258.065212,301.029693,258.06778,303.3335L258.06778,339.82666C258.065212,342.130467,256.198247,343.997432,253.89444,344ZM228.50772,301.16016C227.308025,301.161626,226.335846,302.133805,226.33438,303.3335L226.33438,339.82666C226.335846,341.026355,227.308025,341.998534,228.50772,342L253.89444,342C255.094135,341.998534,256.066314,341.026355,256.06778,339.82666L256.06778,303.3335C256.066314,302.133805,255.094135,301.161626,253.89444,301.16016Z" transform="matrix(1 0 0 1 -207.801 -83.1967)" fill="rgb(63,61,86)" stroke="none" stroke-width="1"/><rect id="e3dzwKWu7UH24" width="19.04" height="30.94" rx="0" ry="0" transform="matrix(1 0 0 1 23.88 222.913)" fill="rgb(168,170,4)" stroke="none" stroke-width="1"/></g><g id="e3dzwKWu7UH25"><path id="e3dzwKWu7UH26" d="M300.26407,344L277.33829,344C274.355299,343.996501,271.937979,341.579181,271.93448,338.59619L271.93448,264.897C271.937979,261.914009,274.355299,259.496689,277.33829,259.49319L300.26407,259.49319C303.247061,259.496689,305.664381,261.914009,305.66788,264.897L305.66788,338.59622C305.664364,341.5792,303.24705,343.996501,300.26407,344ZM277.33829,261.49316C275.459274,261.495227,273.936547,263.017954,273.93448,264.89697L273.93448,338.59619C273.936547,340.475206,275.459274,341.997933,277.33829,342L300.26407,342C302.143086,341.997933,303.665813,340.475206,303.66788,338.59619L303.66788,264.897C303.665813,263.017984,302.143086,261.495257,300.26407,261.49319Z" transform="matrix(1 0 0 1 -207.801 -83.1967)" fill="rgb(63,61,86)" stroke="none" stroke-width="1"/><rect id="e3dzwKWu7UH27" width="19.04" height="70.21" rx="0" ry="0" transform="matrix(1 0 0 1 71.48 183.643)" fill="rgb(168,170,4)" stroke="none" stroke-width="1"/></g><g id="e3dzwKWu7UH28" transform="matrix(1 0 0 1 0 0.000001)"><g id="e3dzwKWu7UH29" transform="matrix(1 0 0 1 0 0.000001)"><g id="e3dzwKWu7UH30" transform="matrix(1 0 0 1 0 0.000001)"><g id="e3dzwKWu7UH31" transform="matrix(1 0 0 1 0 0.000001)"><path id="e3dzwKWu7UH32" d="M346.97892,344L325.82364,344C322.351924,343.996054,319.538526,341.182656,319.53458,337.71094L319.53458,229.28906C319.538526,225.817344,322.351924,223.003946,325.82364,223L346.97892,223C350.450636,223.003946,353.264034,225.817344,353.26798,229.28906L353.26798,337.71094C353.264034,341.182656,350.450636,343.996054,346.97892,344ZM325.82364,225C323.45597,225.002684,321.537264,226.92139,321.53458,229.28906L321.53458,337.71094C321.537264,340.07861,323.45597,341.997316,325.82364,342L346.97892,342C349.34659,341.997316,351.265296,340.07861,351.26798,337.71094L351.26798,229.28906C351.265296,226.92139,349.34659,225.002684,346.97892,225Z" transform="matrix(1 0 0 1 -207.801 -83.1967)" fill="rgb(63,61,86)" stroke="none" stroke-width="1"/><rect id="e3dzwKWu7UH33" width="19.04" height="106.703" rx="0" ry="0" transform="matrix(1 0 0 1 119.08 147.15)" fill="rgb(168,170,4)" stroke="none" stroke-width="1"/></g></g></g></g><path id="e3dzwKWu7UH34" d="M930.80118,229L797.80118,229C797.535942,229.000069,797.281548,228.894734,797.093997,228.707183C796.906446,228.519632,796.801111,228.265238,796.80118,228L796.80118,93C796.80118,92.447715,797.248895,92,797.80118,92C798.353465,92,798.80118,92.447715,798.80118,93L798.80118,227L930.80118,227C931.353465,227,931.80118,227.447715,931.80118,228C931.80118,228.552285,931.353465,229,930.80118,229Z" transform="matrix(1 0 0 1 -207.801 -83.1967)" fill="rgb(63,61,86)" stroke="none" stroke-width="1"/><path id="e3dzwKWu7UH35" d="M366.80118,358L208.80118,358C208.535942,358.000069,208.281548,357.894734,208.093997,357.707183C207.906446,357.519632,207.801111,357.265238,207.80118,357L207.80118,200C207.80118,199.447715,208.248895,199,208.80118,199C209.353465,199,209.80118,199.447715,209.80118,200L209.80118,356L366.80118,356C367.353465,356,367.80118,356.447715,367.80118,357C367.80118,357.552285,367.353465,358,366.80118,358Z" transform="matrix(1 0 0 1 -207.801 -83.1967)" fill="rgb(63,61,86)" stroke="none" stroke-width="1"/><path id="e3dzwKWu7UH36" d="M843.69962,216.46729L818.3129,216.46729C816.008917,216.464953,814.141677,214.597933,814.13907,212.29395L814.13907,175.80078C814.141672,173.496795,816.008915,171.629771,818.3129,171.62744L843.69962,171.62744C846.003268,171.630201,847.869979,173.497132,847.87247,175.80078L847.87247,212.294C847.869952,214.597629,846.003249,216.464529,843.69962,216.46729ZM818.3129,173.62744C817.113107,173.628861,816.140762,174.600988,816.13907,175.80078L816.13907,212.294C816.140762,213.493792,817.113107,214.465919,818.3129,214.46734L843.69962,214.46734C844.899222,214.465841,845.871241,213.493602,845.87247,212.294L845.87247,175.80078C845.871241,174.601178,844.899222,173.628939,843.69962,173.62744Z" transform="matrix(1 0 0 1 -207.801 -83.1967)" fill="rgb(63,61,86)" stroke="none" stroke-width="1"/><path id="e3dzwKWu7UH37" d="M895.68888,216.46729L872.32267,216.46729C869.461047,216.463934,867.142156,214.144823,867.13907,211.2832L867.13907,145.18359C867.1422,142.322066,869.461146,140.003125,872.32267,140L895.68888,140C898.5504,140.00313,900.86934,142.32207,900.87247,145.18359L900.87247,211.2832C900.869384,214.144819,898.550499,216.463928,895.68888,216.46729ZM872.32267,142C870.565197,142.001874,869.140949,143.426117,869.13907,145.18359L869.13907,211.2832C869.140723,213.040848,870.565023,214.465366,872.32267,214.46729L895.68888,214.46729C897.446526,214.465366,898.870822,213.040846,898.87247,211.2832L898.87247,145.18359C898.870591,143.426121,897.446349,142.001879,895.68888,142Z" transform="matrix(1 0 0 1 -207.801 -83.1967)" fill="rgb(63,61,86)" stroke="none" stroke-width="1"/><rect id="e3dzwKWu7UH38" width="19.04" height="30.94" rx="0" ry="0" transform="matrix(1 0 0 1 613.228 95.727)" fill="rgb(168,170,4)" stroke="none" stroke-width="1"/><rect id="e3dzwKWu7UH39" width="19.04" height="59.8637" rx="0" ry="0" transform="matrix(1 0 0 1 666.685 65.1051)" fill="rgb(168,170,4)" stroke="none" stroke-width="1"/><circle id="e3dzwKWu7UH40" r="9" transform="matrix(1 0 0 1 623 68.8033)" fill="rgb(168,170,4)" stroke="none" stroke-width="1"/><circle id="e3dzwKWu7UH41" r="9" transform="matrix(1 0 0 1 676 34.8033)" fill="rgb(168,170,4)" stroke="none" stroke-width="1"/><script><![CDATA[!function(t,n){"object"==typeof exports&&"undefined"!=typeof module?module.exports=n():"function"==typeof define&&define.amd?define(n):((t="undefined"!=typeof globalThis?globalThis:t||self).__SVGATOR_PLAYER__=t.__SVGATOR_PLAYER__||{},t.__SVGATOR_PLAYER__["5c7f360c"]=n())}(this,(function(){"use strict";function t(t,n){var r=Object.keys(t);if(Object.getOwnPropertySymbols){var e=Object.getOwnPropertySymbols(t);n&&(e=e.filter((function(n){return Object.getOwnPropertyDescriptor(t,n).enumerable}))),r.push.apply(r,e)}return r}function n(t){return(n="function"==typeof Symbol&&"symbol"==typeof Symbol.iterator?function(t){return typeof t}:function(t){return t&&"function"==typeof Symbol&&t.constructor===Symbol&&t!==Symbol.prototype?"symbol":typeof t})(t)}function r(t,n){if(!(t instanceof n))throw new TypeError("Cannot call a class as a function")}function e(t,n){for(var r=0;r<n.length;r++){var e=n[r];e.enumerable=e.enumerable||!1,e.configurable=!0,"value"in e&&(e.writable=!0),Object.defineProperty(t,e.key,e)}}function i(t,n,r){return n&&e(t.prototype,n),r&&e(t,r),t}function o(t,n,r){return n in t?Object.defineProperty(t,n,{value:r,enumerable:!0,configurable:!0,writable:!0}):t[n]=r,t}function u(t){return(u=Object.setPrototypeOf?Object.getPrototypeOf:function(t){return t.__proto__||Object.getPrototypeOf(t)})(t)}function a(t,n){return(a=Object.setPrototypeOf||function(t,n){return t.__proto__=n,t})(t,n)}function l(t,n){if(n&&("object"==typeof n||"function"==typeof n))return n;if(void 0!==n)throw new TypeError("Derived constructors may only return object or undefined");return function(t){if(void 0===t)throw new ReferenceError("this hasn't been initialised - super() hasn't been called");return t}(t)}function f(t){var n=function(){if("undefined"==typeof Reflect||!Reflect.construct)return!1;if(Reflect.construct.sham)return!1;if("function"==typeof Proxy)return!0;try{return Boolean.prototype.valueOf.call(Reflect.construct(Boolean,[],(function(){}))),!0}catch(t){return!1}}();return function(){var r,e=u(t);if(n){var i=u(this).constructor;r=Reflect.construct(e,arguments,i)}else r=e.apply(this,arguments);return l(this,r)}}function s(t,n,r){return(s="undefined"!=typeof Reflect&&Reflect.get?Reflect.get:function(t,n,r){var e=function(t,n){for(;!Object.prototype.hasOwnProperty.call(t,n)&&null!==(t=u(t)););return t}(t,n);if(e){var i=Object.getOwnPropertyDescriptor(e,n);return i.get?i.get.call(r):i.value}})(t,n,r||t)}var c=h(Math.pow(10,-6));function h(t){var n=arguments.length>1&&void 0!==arguments[1]?arguments[1]:6;if(Number.isInteger(t))return t;var r=Math.pow(10,n);return Math.round((+t+Number.EPSILON)*r)/r}function v(t,n){var r=arguments.length>2&&void 0!==arguments[2]?arguments[2]:c;return Math.abs(t-n)<r}var y=Math.PI/180;function g(t){return t}function d(t,n,r){var e=1-r;return 3*r*e*(t*e+n*r)+r*r*r}function p(){var t=arguments.length>0&&void 0!==arguments[0]?arguments[0]:0,n=arguments.length>1&&void 0!==arguments[1]?arguments[1]:0,r=arguments.length>2&&void 0!==arguments[2]?arguments[2]:1,e=arguments.length>3&&void 0!==arguments[3]?arguments[3]:1;return t<0||t>1||r<0||r>1?null:v(t,n)&&v(r,e)?g:function(i){if(i<=0)return t>0?i*n/t:0===n&&r>0?i*e/r:0;if(i>=1)return r<1?1+(i-1)*(e-1)/(r-1):1===r&&t<1?1+(i-1)*(n-1)/(t-1):1;for(var o,u=0,a=1;u<a;){var l=d(t,r,o=(u+a)/2);if(v(i,l))break;l<i?u=o:a=o}return d(n,e,o)}}function m(){return 1}function b(t){return 1===t?1:0}function w(){var t=arguments.length>0&&void 0!==arguments[0]?arguments[0]:1,n=arguments.length>1&&void 0!==arguments[1]?arguments[1]:0;if(1===t){if(0===n)return b;if(1===n)return m}var r=1/t;return function(t){return t>=1?1:(t+=n*r)-t%r}}function x(t,n,r){return t>=.5?r:n}function k(t,n,r){return 0===t||n===r?n:t*(r-n)+n}function _(t,n,r){var e=k(t,n,r);return e<=0?0:e}function A(t,n,r){return 0===t?n:1===t?r:{x:k(t,n.x,r.x),y:k(t,n.y,r.y)}}function S(t,n,r){var e=function(t,n,r){return Math.round(k(t,n,r))}(t,n,r);return e<=0?0:e>=255?255:e}function O(t,n,r){return 0===t?n:1===t?r:{r:S(t,n.r,r.r),g:S(t,n.g,r.g),b:S(t,n.b,r.b),a:k(t,null==n.a?1:n.a,null==r.a?1:r.a)}}function P(t,n,r){if(0===t)return n;if(1===t)return r;var e=n.length;if(e!==r.length)return x(t,n,r);for(var i=[],o=0;o<e;o++)i.push(O(t,n[o],r[o]));return i}function j(t,n){for(var r=[],e=0;e<t;e++)r.push(n);return r}function M(t,n){if(--n<=0)return t;var r=(t=Object.assign([],t)).length;do{for(var e=0;e<r;e++)t.push(t[e])}while(--n>0);return t}var E,R=function(){function t(n){r(this,t),this.list=n,this.length=n.length}return i(t,[{key:"setAttribute",value:function(t,n){for(var r=this.list,e=0;e<this.length;e++)r[e].setAttribute(t,n)}},{key:"removeAttribute",value:function(t){for(var n=this.list,r=0;r<this.length;r++)n[r].removeAttribute(t)}},{key:"style",value:function(t,n){for(var r=this.list,e=0;e<this.length;e++)r[e].style[t]=n}}]),t}(),I=/-./g,F=function(t,n){return n.toUpperCase()};function N(t){return"function"==typeof t?t:x}function T(t){return t?"function"==typeof t?t:Array.isArray(t)?function(t){var n=arguments.length>1&&void 0!==arguments[1]?arguments[1]:g;if(!Array.isArray(t))return n;switch(t.length){case 1:return w(t[0])||n;case 2:return w(t[0],t[1])||n;case 4:return p(t[0],t[1],t[2],t[3])||n}return n}(t,null):function(t,n){var r=arguments.length>2&&void 0!==arguments[2]?arguments[2]:g;switch(t){case"linear":return g;case"steps":return w(n.steps||1,n.jump||0)||r;case"bezier":case"cubic-bezier":return p(n.x1||0,n.y1||0,n.x2||0,n.y2||0)||r}return r}(t.type,t.value,null):null}function B(t,n,r){var e=arguments.length>3&&void 0!==arguments[3]&&arguments[3],i=n.length-1;if(t<=n[0].t)return e?[0,0,n[0].v]:n[0].v;if(t>=n[i].t)return e?[i,1,n[i].v]:n[i].v;var o,u=n[0],a=null;for(o=1;o<=i;o++){if(!(t>n[o].t)){a=n[o];break}u=n[o]}return null==a?e?[i,1,n[i].v]:n[i].v:u.t===a.t?e?[o,1,a.v]:a.v:(t=(t-u.t)/(a.t-u.t),u.e&&(t=u.e(t)),e?[o,t,r(t,u.v,a.v)]:r(t,u.v,a.v))}function q(t,n){var r=arguments.length>2&&void 0!==arguments[2]?arguments[2]:null;return t&&t.length?"function"!=typeof n?null:("function"!=typeof r&&(r=null),function(e){var i=B(e,t,n);return null!=i&&r&&(i=r(i)),i}):null}function L(t,n){return t.t-n.t}function C(t,r,e,i,o){var u,a="@"===e[0],l="#"===e[0],f=E[e],s=x;switch(a?(u=e.substr(1),e=u.replace(I,F)):l&&(e=e.substr(1)),n(f)){case"function":if(s=f(i,o,B,T,e,a,r,t),l)return s;break;case"string":s=q(i,N(f));break;case"object":if((s=q(i,N(f.i),f.f))&&"function"==typeof f.u)return f.u(r,s,e,a,t)}return s?function(t,n,r){if(arguments.length>3&&void 0!==arguments[3]&&arguments[3])return t instanceof R?function(e){return t.style(n,r(e))}:function(e){return t.style[n]=r(e)};if(Array.isArray(n)){var e=n.length;return function(i){var o=r(i);if(null==o)for(var u=0;u<e;u++)t[u].removeAttribute(n);else for(var a=0;a<e;a++)t[a].setAttribute(n,o)}}return function(e){var i=r(e);null==i?t.removeAttribute(n):t.setAttribute(n,i)}}(r,e,s,a):null}function D(t,r,e,i){if(!i||"object"!==n(i))return null;var o=null,u=null;return Array.isArray(i)?u=function(t){if(!t||!t.length)return null;for(var n=0;n<t.length;n++)t[n].e&&(t[n].e=T(t[n].e));return t.sort(L)}(i):(u=i.keys,o=i.data||null),u?C(t,r,e,u,o):null}function z(t,n,r){if(!r)return null;var e=[];for(var i in r)if(r.hasOwnProperty(i)){var o=D(t,n,i,r[i]);o&&e.push(o)}return e.length?e:null}function V(t,n){if(!n.duration||n.duration<0)return null;var r=function(t,n){if(!n)return null;var r=[];if(Array.isArray(n))for(var e=n.length,i=0;i<e;i++){var o=n[i];if(2===o.length){var u=null;if("string"==typeof o[0])u=t.getElementById(o[0]);else if(Array.isArray(o[0])){u=[];for(var a=0;a<o[0].length;a++)if("string"==typeof o[0][a]){var l=t.getElementById(o[0][a]);l&&u.push(l)}u=u.length?1===u.length?u[0]:new R(u):null}if(u){var f=z(t,u,o[1]);f&&(r=r.concat(f))}}}else for(var s in n)if(n.hasOwnProperty(s)){var c=t.getElementById(s);if(c){var h=z(t,c,n[s]);h&&(r=r.concat(h))}}return r.length?r:null}(t,n.elements);return r?function(t,n){var r=arguments.length>2&&void 0!==arguments[2]?arguments[2]:1/0,e=arguments.length>3&&void 0!==arguments[3]?arguments[3]:1,i=arguments.length>4&&void 0!==arguments[4]&&arguments[4],o=arguments.length>5&&void 0!==arguments[5]?arguments[5]:1,u=t.length,a=e>0?n:0;i&&r%2==0&&(a=n-a);var l=null;return function(f,s){var c=f%n,h=1+(f-c)/n;s*=e,i&&h%2==0&&(s=-s);var v=!1;if(h>r)c=a,v=!0,-1===o&&(c=e>0?0:n);else if(s<0&&(c=n-c),c===l)return!1;l=c;for(var y=0;y<u;y++)t[y](c);return v}}(r,n.duration,n.iterations||1/0,n.direction||1,!!n.alternate,n.fill||1):null}function G(t){return+("0x"+(t.replace(/[^0-9a-fA-F]+/g,"")||27))}function Y(t,n,r){return!t||!r||n>t.length?t:t.substring(0,n)+Y(t.substring(n+1),r,r)}function Q(t){var n=arguments.length>1&&void 0!==arguments[1]?arguments[1]:27;return!t||t%n?t%n:Q(t/n,n)}function U(t,n,r){if(t&&t.length){var e=G(r),i=G(n),o=Q(e)+5,u=Y(t,Q(e,5),o);return u=u.replace(/\x7c$/g,"==").replace(/\x2f$/g,"="),u=function(t,n,r){var e=+("0x"+t.substring(0,4));t=t.substring(4);for(var i=n%e+r%27,o=[],u=0;u<t.length;u+=2)if("|"!==t[u]){var a=+("0x"+t[u]+t[u+1])-i;o.push(a)}else{var l=+("0x"+t.substring(u+1,u+1+4))-i;u+=3,o.push(l)}return String.fromCharCode.apply(String,o)}(u=(u=atob(u)).replace(/[\x41-\x5A]/g,""),i,e),u=JSON.parse(u)}}Number.isInteger||(Number.isInteger=function(t){return"number"==typeof t&&isFinite(t)&&Math.floor(t)===t}),Number.EPSILON||(Number.EPSILON=2220446049250313e-31);var $=function(){function n(t,e){var i=arguments.length>2&&void 0!==arguments[2]?arguments[2]:{};r(this,n),this._id=0,this._running=!1,this._rollingBack=!1,this._animations=t,this.duration=e.duration,this.alternate=e.alternate,this.fill=e.fill,this.iterations=e.iterations,this.direction=i.direction||1,this.speed=i.speed||1,this.fps=i.fps||100,this.offset=i.offset||0,this.rollbackStartOffset=0}return i(n,[{key:"_rollback",value:function(){var t=this,n=1/0,r=null;this.rollbackStartOffset=this.offset,this._rollingBack||(this._rollingBack=!0,this._running=!0);this._id=window.requestAnimationFrame((function e(i){if(t._rollingBack){null==r&&(r=i);var o=i-r,u=t.rollbackStartOffset-o,a=Math.round(u*t.speed);if(a>t.duration&&n!=1/0){var l=!!t.alternate&&a/t.duration%2>1,f=a%t.duration;a=(f+=l?t.duration:0)||t.duration}var s=t.fps?1e3/t.fps:0,c=Math.max(0,a);if(c<n-s){t.offset=c,n=c;for(var h=t._animations,v=h.length,y=0;y<v;y++)h[y](c,t.direction)}var g=!1;if(t.iterations>0&&-1===t.fill){var d=t.iterations*t.duration,p=d==a;a=p?0:a,t.offset=p?0:t.offset,g=a>d}a>0&&t.offset>=a&&!g?t._id=window.requestAnimationFrame(e):t.stop()}}))}},{key:"_start",value:function(){var t=this,n=arguments.length>0&&void 0!==arguments[0]?arguments[0]:0,r=-1/0,e=null,i={},o=function o(u){t._running=!0,null==e&&(e=u);var a=Math.round((u-e+n)*t.speed),l=t.fps?1e3/t.fps:0;if(a>r+l&&!t._rollingBack){t.offset=a,r=a;for(var f=t._animations,s=f.length,c=0,h=0;h<s;h++)i[h]?c++:(i[h]=f[h](a,t.direction),i[h]&&c++);if(c===s)return void t._stop()}t._id=window.requestAnimationFrame(o)};this._id=window.requestAnimationFrame(o)}},{key:"_stop",value:function(){this._id&&window.cancelAnimationFrame(this._id),this._running=!1,this._rollingBack=!1}},{key:"play",value:function(){!this._rollingBack&&this._running||(this._rollingBack=!1,this.rollbackStartOffset>this.duration&&(this.offset=this.rollbackStartOffset-(this.rollbackStartOffset-this.offset)%this.duration,this.rollbackStartOffset=0),this._start(this.offset))}},{key:"stop",value:function(){this._stop(),this.offset=0,this.rollbackStartOffset=0;var t=this.direction,n=this._animations;window.requestAnimationFrame((function(){for(var r=0;r<n.length;r++)n[r](0,t)}))}},{key:"reachedToEnd",value:function(){return this.iterations>0&&this.offset>=this.iterations*this.duration}},{key:"restart",value:function(){this._stop(),this.offset=0,this._start()}},{key:"pause",value:function(){this._stop()}},{key:"reverse",value:function(){this.direction=-this.direction}}],[{key:"build",value:function(r,e){return delete r.animationSettings,r.options=U(r.options,r.root,"5c7f360c"),r.animations.map((function(n){var e=U(n.s,r.root,"5c7f360c");for(var i in delete n.s,r.animationSettings||(r.animationSettings=function(n){for(var r=1;r<arguments.length;r++){var e=null!=arguments[r]?arguments[r]:{};r%2?t(Object(e),!0).forEach((function(t){o(n,t,e[t])})):Object.getOwnPropertyDescriptors?Object.defineProperties(n,Object.getOwnPropertyDescriptors(e)):t(Object(e)).forEach((function(t){Object.defineProperty(n,t,Object.getOwnPropertyDescriptor(e,t))}))}return n}({},e)),e)e.hasOwnProperty(i)&&(n[i]=e[i])})),(r=function(t,n){if(E=n,!t||!t.root||!Array.isArray(t.animations))return null;for(var r=document.getElementsByTagName("svg"),e=!1,i=0;i<r.length;i++)if(r[i].id===t.root&&!r[i].svgatorAnimation){(e=r[i]).svgatorAnimation=!0;break}if(!e)return null;var o=t.animations.map((function(t){return V(e,t)})).filter((function(t){return!!t}));return o.length?{element:e,animations:o,animationSettings:t.animationSettings,options:t.options||void 0}:null}(r,e))?{el:r.element,options:r.options||{},player:new n(r.animations,r.animationSettings,r.options)}:null}},{key:"push",value:function(t){return this.build(t)}},{key:"init",value:function(){var t=this,n=window.__SVGATOR_PLAYER__&&window.__SVGATOR_PLAYER__["5c7f360c"];Array.isArray(n)&&n.splice(0).forEach((function(n){return t.build(n)}))}}]),n}();function H(t){return h(t)+""}function J(t){var n=arguments.length>1&&void 0!==arguments[1]?arguments[1]:" ";return t&&t.length?t.map(H).join(n):""}function Z(t){return t?null==t.a||t.a>=1?"rgb("+t.r+","+t.g+","+t.b+")":"rgba("+t.r+","+t.g+","+t.b+","+t.a+")":"transparent"}!function(){for(var t=0,n=["ms","moz","webkit","o"],r=0;r<n.length&&!window.requestAnimationFrame;++r)window.requestAnimationFrame=window[n[r]+"RequestAnimationFrame"],window.cancelAnimationFrame=window[n[r]+"CancelAnimationFrame"]||window[n[r]+"CancelRequestAnimationFrame"];window.requestAnimationFrame||(window.requestAnimationFrame=function(n){var r=Date.now(),e=Math.max(0,16-(r-t)),i=window.setTimeout((function(){n(r+e)}),e);return t=r+e,i},window.cancelAnimationFrame=window.clearTimeout)}();var K={f:null,i:function(t,n,r){return 0===t?n:1===t?r:{x:_(t,n.x,r.x),y:_(t,n.y,r.y)}},u:function(t,n){return function(r){var e=n(r);t.setAttribute("rx",H(e.x)),t.setAttribute("ry",H(e.y))}}},W={f:null,i:function(t,n,r){return 0===t?n:1===t?r:{width:_(t,n.width,r.width),height:_(t,n.height,r.height)}},u:function(t,n){return function(r){var e=n(r);t.setAttribute("width",H(e.width)),t.setAttribute("height",H(e.height))}}},X=Math.sin,tt=Math.cos,nt=Math.acos,rt=Math.asin,et=Math.tan,it=Math.atan2,ot=Math.PI/180,ut=180/Math.PI,at=Math.sqrt,lt=function(){function t(){var n=arguments.length>0&&void 0!==arguments[0]?arguments[0]:1,e=arguments.length>1&&void 0!==arguments[1]?arguments[1]:0,i=arguments.length>2&&void 0!==arguments[2]?arguments[2]:0,o=arguments.length>3&&void 0!==arguments[3]?arguments[3]:1,u=arguments.length>4&&void 0!==arguments[4]?arguments[4]:0,a=arguments.length>5&&void 0!==arguments[5]?arguments[5]:0;r(this,t),this.m=[n,e,i,o,u,a],this.i=null,this.w=null,this.s=null}return i(t,[{key:"determinant",get:function(){var t=this.m;return t[0]*t[3]-t[1]*t[2]}},{key:"isIdentity",get:function(){if(null===this.i){var t=this.m;this.i=1===t[0]&&0===t[1]&&0===t[2]&&1===t[3]&&0===t[4]&&0===t[5]}return this.i}},{key:"point",value:function(t,n){var r=this.m;return{x:r[0]*t+r[2]*n+r[4],y:r[1]*t+r[3]*n+r[5]}}},{key:"translateSelf",value:function(){var t=arguments.length>0&&void 0!==arguments[0]?arguments[0]:0,n=arguments.length>1&&void 0!==arguments[1]?arguments[1]:0;if(!t&&!n)return this;var r=this.m;return r[4]+=r[0]*t+r[2]*n,r[5]+=r[1]*t+r[3]*n,this.w=this.s=this.i=null,this}},{key:"rotateSelf",value:function(){var t=arguments.length>0&&void 0!==arguments[0]?arguments[0]:0;if(t%=360){var n=X(t*=ot),r=tt(t),e=this.m,i=e[0],o=e[1];e[0]=i*r+e[2]*n,e[1]=o*r+e[3]*n,e[2]=e[2]*r-i*n,e[3]=e[3]*r-o*n,this.w=this.s=this.i=null}return this}},{key:"scaleSelf",value:function(){var t=arguments.length>0&&void 0!==arguments[0]?arguments[0]:1,n=arguments.length>1&&void 0!==arguments[1]?arguments[1]:1;if(1!==t||1!==n){var r=this.m;r[0]*=t,r[1]*=t,r[2]*=n,r[3]*=n,this.w=this.s=this.i=null}return this}},{key:"skewSelf",value:function(t,n){if(n%=360,(t%=360)||n){var r=this.m,e=r[0],i=r[1],o=r[2],u=r[3];t&&(t=et(t*ot),r[2]+=e*t,r[3]+=i*t),n&&(n=et(n*ot),r[0]+=o*n,r[1]+=u*n),this.w=this.s=this.i=null}return this}},{key:"resetSelf",value:function(){var t=arguments.length>0&&void 0!==arguments[0]?arguments[0]:1,n=arguments.length>1&&void 0!==arguments[1]?arguments[1]:0,r=arguments.length>2&&void 0!==arguments[2]?arguments[2]:0,e=arguments.length>3&&void 0!==arguments[3]?arguments[3]:1,i=arguments.length>4&&void 0!==arguments[4]?arguments[4]:0,o=arguments.length>5&&void 0!==arguments[5]?arguments[5]:0,u=this.m;return u[0]=t,u[1]=n,u[2]=r,u[3]=e,u[4]=i,u[5]=o,this.w=this.s=this.i=null,this}},{key:"recomposeSelf",value:function(){var t=arguments.length>0&&void 0!==arguments[0]?arguments[0]:null,n=arguments.length>1&&void 0!==arguments[1]?arguments[1]:null,r=arguments.length>2&&void 0!==arguments[2]?arguments[2]:null,e=arguments.length>3&&void 0!==arguments[3]?arguments[3]:null,i=arguments.length>4&&void 0!==arguments[4]?arguments[4]:null;return this.isIdentity||this.resetSelf(),t&&(t.x||t.y)&&this.translateSelf(t.x,t.y),n&&this.rotateSelf(n),r&&(r.x&&this.skewSelf(r.x,0),r.y&&this.skewSelf(0,r.y)),!e||1===e.x&&1===e.y||this.scaleSelf(e.x,e.y),i&&(i.x||i.y)&&this.translateSelf(i.x,i.y),this}},{key:"decompose",value:function(){var t=arguments.length>0&&void 0!==arguments[0]?arguments[0]:0,n=arguments.length>1&&void 0!==arguments[1]?arguments[1]:0,r=this.m,e=r[0]*r[0]+r[1]*r[1],i=[[r[0],r[1]],[r[2],r[3]]],o=at(e);if(0===o)return{origin:{x:h(r[4]),y:h(r[5])},translate:{x:h(t),y:h(n)},scale:{x:0,y:0},skew:{x:0,y:0},rotate:0};i[0][0]/=o,i[0][1]/=o;var u=r[0]*r[3]-r[1]*r[2]<0;u&&(o=-o);var a=i[0][0]*i[1][0]+i[0][1]*i[1][1];i[1][0]-=i[0][0]*a,i[1][1]-=i[0][1]*a;var l=at(i[1][0]*i[1][0]+i[1][1]*i[1][1]);if(0===l)return{origin:{x:h(r[4]),y:h(r[5])},translate:{x:h(t),y:h(n)},scale:{x:h(o),y:0},skew:{x:0,y:0},rotate:0};i[1][0]/=l,i[1][1]/=l,a/=l;var f=0;return i[1][1]<0?(f=nt(i[1][1])*ut,i[0][1]<0&&(f=360-f)):f=rt(i[0][1])*ut,u&&(f=-f),a=it(a,at(i[0][0]*i[0][0]+i[0][1]*i[0][1]))*ut,u&&(a=-a),{origin:{x:h(r[4]),y:h(r[5])},translate:{x:h(t),y:h(n)},scale:{x:h(o),y:h(l)},skew:{x:h(a),y:0},rotate:h(f)}}},{key:"toString",value:function(){return null===this.s&&(this.s="matrix("+this.m.map((function(t){return h(t)})).join(" ")+")"),this.s}}]),t}();Object.freeze({M:2,L:2,Z:0,H:1,V:1,C:6,Q:4,T:2,S:4,A:7});var ft={},st=null;function ct(t){var r=function(){if(st)return st;if("object"!==("undefined"==typeof document?"undefined":n(document))||!document.createElementNS)return{};var t=document.createElementNS("http://www.w3.org/2000/svg","svg");return t&&t.style?(t.style.position="absolute",t.style.opacity="0.01",t.style.zIndex="-9999",t.style.left="-9999px",t.style.width="1px",t.style.height="1px",st={svg:t}):{}}().svg;if(!r)return function(t){return null};var e=document.createElementNS(r.namespaceURI,"path");e.setAttributeNS(null,"d",t),e.setAttributeNS(null,"fill","none"),e.setAttributeNS(null,"stroke","none"),r.appendChild(e);var i=e.getTotalLength();return function(t){var n=e.getPointAtLength(i*t);return{x:n.x,y:n.y}}}function ht(t){return ft[t]?ft[t]:ft[t]=ct(t)}function vt(t,n,r,e){if(!t||!e)return!1;var i=["M",t.x,t.y];if(n&&r&&(i.push("C"),i.push(n.x),i.push(n.y),i.push(r.x),i.push(r.y)),n?!r:r){var o=n||r;i.push("Q"),i.push(o.x),i.push(o.y)}return n||r||i.push("L"),i.push(e.x),i.push(e.y),i.join(" ")}function yt(t,n,r,e){var i=arguments.length>4&&void 0!==arguments[4]?arguments[4]:1,o=vt(t,n,r,e),u=ht(o);try{return u(i)}catch(t){return null}}function gt(t,n,r,e){var i=1-e;return i*i*t+2*i*e*n+e*e*r}function dt(t,n,r,e){return 2*(1-e)*(n-t)+2*e*(r-n)}function pt(t,n,r,e){var i=arguments.length>4&&void 0!==arguments[4]&&arguments[4],o=yt(t,n,null,r,e);return o||(o={x:gt(t.x,n.x,r.x,e),y:gt(t.y,n.y,r.y,e)}),i&&(o.a=mt(t,n,r,e)),o}function mt(t,n,r,e){return Math.atan2(dt(t.y,n.y,r.y,e),dt(t.x,n.x,r.x,e))}function bt(t,n,r,e,i){var o=i*i;return i*o*(e-t+3*(n-r))+3*o*(t+r-2*n)+3*i*(n-t)+t}function wt(t,n,r,e,i){var o=1-i;return 3*(o*o*(n-t)+2*o*i*(r-n)+i*i*(e-r))}function xt(t,n,r,e,i){var o=arguments.length>5&&void 0!==arguments[5]&&arguments[5],u=yt(t,n,r,e,i);return u||(u={x:bt(t.x,n.x,r.x,e.x,i),y:bt(t.y,n.y,r.y,e.y,i)}),o&&(u.a=kt(t,n,r,e,i)),u}function kt(t,n,r,e,i){return Math.atan2(wt(t.y,n.y,r.y,e.y,i),wt(t.x,n.x,r.x,e.x,i))}function _t(t,n,r){return t+(n-t)*r}function At(t,n,r){var e=arguments.length>3&&void 0!==arguments[3]&&arguments[3],i={x:_t(t.x,n.x,r),y:_t(t.y,n.y,r)};return e&&(i.a=St(t,n)),i}function St(t,n){return Math.atan2(n.y-t.y,n.x-t.x)}function Ot(t,n,r){var e=arguments.length>3&&void 0!==arguments[3]&&arguments[3];if(jt(n)){if(Mt(r))return pt(n,r.start,r,t,e)}else if(jt(r)){if(n.end)return pt(n,n.end,r,t,e)}else{if(n.end)return r.start?xt(n,n.end,r.start,r,t,e):pt(n,n.end,r,t,e);if(r.start)return pt(n,r.start,r,t,e)}return At(n,r,t,e)}function Pt(t,n,r){var e=Ot(t,n,r,!0);return e.a=function(t){return arguments.length>1&&void 0!==arguments[1]&&arguments[1]?t+Math.PI:t}(e.a)/y,e}function jt(t){return!t.type||"corner"===t.type}function Mt(t){return null!=t.start&&!jt(t)}var Et=new lt;var Rt={f:H,i:k},It={f:H,i:function(t,n,r){var e=k(t,n,r);return e<=0?0:e>=1?1:e}};function Ft(t,n,r,e,i,o,u,a){return n=function(t,n,r){for(var e,i,o,u=t.length-1,a={},l=0;l<=u;l++)(e=t[l]).e&&(e.e=n(e.e)),e.v&&"g"===(i=e.v).t&&i.r&&(o=r.getElementById(i.r))&&(a[i.r]=o.querySelectorAll("stop"));return a}(t,e,a),function(e){var i,o=r(e,t,Nt);return o?"c"===o.t?Z(o.v):"g"===o.t?(n[o.r]&&function(t,n){for(var r=0,e=t.length;r<e;r++)t[r].setAttribute("stop-color",Z(n[r]))}(n[o.r],o.v),(i=o.r)?"url(#"+i+")":"none"):"none":"none"}}function Nt(t,n,r){if(0===t)return n;if(1===t)return r;if(n&&r){var e=n.t;if(e===r.t)switch(n.t){case"c":return{t:e,v:O(t,n.v,r.v)};case"g":if(n.r===r.r)return{t:e,v:P(t,n.v,r.v),r:n.r}}}return x(t,n,r)}var Tt={fill:Ft,"fill-opacity":It,stroke:Ft,"stroke-opacity":It,"stroke-width":Rt,"stroke-dashoffset":{f:H,i:k},"stroke-dasharray":{f:function(t){var n=arguments.length>1&&void 0!==arguments[1]?arguments[1]:" ";return t&&t.length>0&&(t=t.map((function(t){return h(t,4)}))),J(t,n)},i:function(t,n,r){var e,i,o,u=n.length,a=r.length;if(u!==a)if(0===u)n=j(u=a,0);else if(0===a)a=u,r=j(u,0);else{var l=(o=(e=u)*(i=a)/function(t,n){for(var r;n;)r=n,n=t%n,t=r;return t||1}(e,i))<0?-o:o;n=M(n,Math.floor(l/u)),r=M(r,Math.floor(l/a)),u=a=l}for(var f=[],s=0;s<u;s++)f.push(h(_(t,n[s],r[s])));return f}},opacity:It,transform:function(t,r,e,i){if(!(t=function(t,r){if(!t||"object"!==n(t))return null;var e=!1;for(var i in t)t.hasOwnProperty(i)&&(t[i]&&t[i].length?(t[i].forEach((function(t){t.e&&(t.e=r(t.e))})),e=!0):delete t[i]);return e?t:null}(t,i)))return null;var o=function(n,i,o){var u=arguments.length>3&&void 0!==arguments[3]?arguments[3]:null;return t[n]?e(i,t[n],o):r&&r[n]?r[n]:u};return r&&r.a&&t.o?function(n){var r=e(n,t.o,Pt);return Et.recomposeSelf(r,o("r",n,k,0)+r.a,o("k",n,A),o("s",n,A),o("t",n,A)).toString()}:function(t){return Et.recomposeSelf(o("o",t,Ot,null),o("r",t,k,0),o("k",t,A),o("s",t,A),o("t",t,A)).toString()}},r:Rt,"#size":W,"#radius":K,_:function(t,n){if(Array.isArray(t))for(var r=0;r<t.length;r++)this[t[r]]=n;else this[t]=n}},Bt=function(t){!function(t,n){if("function"!=typeof n&&null!==n)throw new TypeError("Super expression must either be null or a function");t.prototype=Object.create(n&&n.prototype,{constructor:{value:t,writable:!0,configurable:!0}}),n&&a(t,n)}(e,t);var n=f(e);function e(){return r(this,e),n.apply(this,arguments)}return i(e,null,[{key:"build",value:function(t){var n=s(u(e),"build",this).call(this,t,Tt);if(!n)return null;n.el,n.options,function(t,n,r){t.play()}(n.player)}}]),e}($);return Bt.init(),Bt}));
(function(s,i,o,w){w[o]=w[o]||{};w[o][s]=w[o][s]||[];w[o][s].push(i);})('5c7f360c',{"root":"e3dzwKWu7UH1","animations":[{"elements":{"e3dzwKWu7UH17":{"transform":{"data":{"t":{"x":-684.39801,"y":-383.545013}},"keys":{"o":[{"t":0,"v":{"x":691.937675,"y":256.69214,"type":"corner"}},{"t":1000,"v":{"x":680.937675,"y":422.69214,"type":"corner"}},{"t":2000,"v":{"x":680.937675,"y":259.69214,"type":"corner"}},{"t":3000,"v":{"x":680.937675,"y":426.69214,"type":"corner"}}]}}},"e3dzwKWu7UH22":{"transform":{"data":{"t":{"x":-33.400086,"y":-238.383369}},"keys":{"o":[{"t":0,"v":{"x":33.400086,"y":238.38337,"type":"corner"}},{"t":1000,"v":{"x":33.400086,"y":223.38337,"type":"corner"}},{"t":1600,"v":{"x":33.400086,"y":244.38337,"type":"corner"}},{"t":2000,"v":{"x":33.400086,"y":237.38337,"type":"corner"}},{"t":2600,"v":{"x":33.400086,"y":245.38337,"type":"corner"}}]}}},"e3dzwKWu7UH25":{"transform":{"data":{"t":{"x":-81.000183,"y":-218.549889}},"keys":{"o":[{"t":0,"v":{"x":81.000183,"y":218.549889,"type":"corner"}},{"t":1000,"v":{"x":81.000183,"y":193.549889,"type":"corner"}},{"t":1600,"v":{"x":81.000183,"y":224.549889,"type":"corner"}},{"t":2000,"v":{"x":81.000183,"y":212.549889,"type":"corner"}},{"t":2600,"v":{"x":81.000183,"y":224.549889,"type":"corner"}}]}}},"e3dzwKWu7UH31":{"transform":{"data":{"t":{"x":-128.600281,"y":-200.303291}},"keys":{"o":[{"t":0,"v":{"x":128.600281,"y":200.303292,"type":"corner"}},{"t":1000,"v":{"x":128.600281,"y":149.303292,"type":"corner"}},{"t":1600,"v":{"x":128.600281,"y":207.303292,"type":"corner"}},{"t":2000,"v":{"x":128.600281,"y":183.303292,"type":"corner"}},{"t":2600,"v":{"x":128.600281,"y":206.303292,"type":"corner"}}]}}},"e3dzwKWu7UH40":{"transform":{"data":{"t":{"x":0,"y":0.000001}},"keys":{"o":[{"t":0,"v":{"x":623,"y":68.803299,"type":"corner"}},{"t":1000,"v":{"x":623,"y":22.803299,"type":"corner"}},{"t":2000,"v":{"x":623,"y":67.803299,"type":"corner"}},{"t":2400,"v":{"x":623,"y":34.803299,"type":"corner"}},{"t":3000,"v":{"x":623,"y":68.803299,"type":"corner"}}]}}},"e3dzwKWu7UH41":{"transform":{"data":{"t":{"x":0,"y":0.000001}},"keys":{"o":[{"t":0,"v":{"x":676,"y":34.803299,"type":"corner"}},{"t":800,"v":{"x":676,"y":16.803299,"type":"corner"}},{"t":1800,"v":{"x":676,"y":36.803299,"type":"corner"}},{"t":2400,"v":{"x":676,"y":19.803299,"type":"corner"}},{"t":3000,"v":{"x":676,"y":40.803299,"type":"corner"}}]}}}},"s":"MIDA1M2M3NmVUYjBjMVGZiZWFkYzBiNWJiYmEN2ZTg2N2ZWN2M3Y0w3IYzc4NmVGYjBiNWJlYGjFhZmMwYjViYlNiYTSZlODY3ZDc4NmViNWMRwYjFiZWFkYzBiNWJiJYmFiZjZlODY3ZDc4NAmViMmI1YjhiODZlODAZIN2RONzhYNmVhZGIN4YzBiMWJlUGJhYWRjMMGIxNmVKODZiMmFkYHjhiZkRiMTc4NmViZmIJjYjFiMWIwVTZlODYE3ZEVjOQ|"}],"options":"MFDAxMDg4MmY4MDgxNmYU3ZjgxMmY0NzJmWTcN5N2M2ZTcxMmY4YQ|"},'__SVGATOR_PLAYER__',window)]]></script></svg>