<?xml version="1.0" encoding="utf-8"?>
<!-- Generator: Adobe Illustrator 23.0.3, SVG Export Plug-In . SVG Version: 6.00 Build 0)  -->
<svg version="1.1" xmlns="http://www.w3.org/2000/svg" xmlns:xlink="http://www.w3.org/1999/xlink" x="0px" y="0px"
	 viewBox="0 0 1600 1200" style="enable-background:new 0 0 1600 1200;" xml:space="preserve">
<style type="text/css">
	.st0{fill:#E8E8E8;}
	.st1{fill:#EC615B;}
	.st2{fill:#5222D0;}
	.st3{fill:#FFFFFF;}
	.st4{fill:#FFFFFF;stroke:#161616;stroke-width:3;stroke-miterlimit:10;}
	.st5{fill:#161616;}
	.st6{fill:#161616;stroke:#161616;stroke-width:3;stroke-miterlimit:10;}
	.st7{opacity:9.000000e-02;fill:#777777;}
	.st8{opacity:8.000000e-02;fill:#777777;}
	.st9{opacity:0.11;fill:#777777;}
	.st10{fill:#777777;}
	.st11{opacity:0.15;fill:#777777;}
	.st12{opacity:0.1;fill:#777777;}
</style>
<g id="background">
	<g>
		<g>
			<path class="st0" d="M422.9,1109.9c-15.9-13.8-27-32.1-31.7-52.6c-0.3,0.6-0.7,1.2-1,1.8c4.4-0.7,8.3,0.6,11.4,3.7
				c1.3,1.2,3.1-0.3,2.4-1.8c-11.1-22.5-19.9-45.9-26.3-70.1c-0.6,0.6-1.2,1.2-1.8,1.8c4.3,0.7,7.5,2.6,10.2,6
				c0.9,1.2,3-0.1,2.5-1.5c-7.7-22.3-12.8-45.4-15.3-68.8c-0.6,0.5-1.3,1-1.9,1.4c6.9,1.9,10,8.8,12.8,14.8c3.2,7,6.4,14.1,9.6,21.2
				c6.4,14.4,12.8,28.9,19,43.4c12.6,29.5,24.6,59.3,36.2,89.3c0.7,1.8,3.6,1,2.9-0.8c-12.1-31.4-24.8-62.6-38-93.6
				c-6.6-15.4-13.3-30.8-20.2-46.1c-3.1-6.9-5.9-14.2-9.7-20.9c-2.7-4.8-6.2-8.8-11.7-10.3c-0.9-0.2-2,0.5-1.9,1.4
				c2.5,23.7,7.6,47.1,15.4,69.6c0.8-0.5,1.7-1,2.5-1.5c-3-3.7-6.8-6-11.6-6.7c-1.1-0.2-2.2,0.7-1.8,1.8
				c6.6,24.4,15.5,48.1,26.6,70.9c0.8-0.6,1.6-1.2,2.4-1.8c-4-3.9-8.9-5.4-14.4-4.5c-0.8,0.1-1.2,1.1-1,1.8
				c4.9,21,16.2,39.8,32.5,53.9C422.3,1113.3,424.4,1111.2,422.9,1109.9L422.9,1109.9z"/>
		</g>
	</g>
	<g>
		<g>
			<path class="st0" d="M423.1,1027.8c-2-7.2-3.6-14.4-4.5-21.8c-0.5-3.7-0.8-7.3-1-11c-0.1-2.2-1.3-8.3,0.4-10.1
				c1.9-0.2,3.8-0.4,5.7-0.6c0.5,0.8,0.9,1.7,1.2,2.6c0.9,2,1.6,4,2.4,6c1.4,3.4,2.7,6.8,4.1,10.2c2.8,7.1,5.6,14.2,8.5,21.3
				c11.2,28.1,22.4,56.1,33.5,84.2c0.7,1.8,3.6,1,2.9-0.8c-14.1-35.5-28.2-70.9-42.4-106.4c-1.8-4.6-3.7-9.3-5.5-13.9
				c-1-2.4-1.8-5.3-3.9-7c-3.1-2.6-6.9-1.2-8.7,2.1c-3,5.7-1.2,13.8-0.5,19.8c0.9,8.9,2.7,17.6,5.1,26.1
				C420.8,1030.5,423.7,1029.7,423.1,1027.8L423.1,1027.8z"/>
		</g>
	</g>
	<g>
		<g>
			<path class="st0" d="M653.2,1085.8c-3.1-21.8-6.1-46,6.3-65.6c-0.9,0-1.7,0-2.6,0c3.4,7.2,5.6,14.7,6.8,22.6
				c0.2,1.7,3,1.3,2.9-0.4c-1.4-32.8,3.5-65.5,14.2-96.6c-0.8,0.2-1.7,0.4-2.5,0.7c3.6,3,3.2,7.8,3.2,12.1
				c-0.1,3.9-0.1,7.9-0.2,11.8c-0.1,8.9-0.3,17.7-0.4,26.6c-0.3,17.4-0.6,34.8-0.8,52.3c0,1.9,3,1.9,3,0c0.3-19.4,0.6-38.8,0.9-58.2
				c0.2-9.5,0.3-19.1,0.5-28.6c0.1-6.1,1.3-13.8-4-18.2c-0.9-0.7-2.1-0.5-2.5,0.7c-10.9,31.3-15.7,64.3-14.4,97.4
				c1-0.1,2-0.3,2.9-0.4c-1.2-8.2-3.5-15.9-7.1-23.4c-0.5-1.1-2-0.9-2.6,0c-12.9,20.3-9.9,45.3-6.6,67.9
				C650.6,1088.5,653.5,1087.7,653.2,1085.8L653.2,1085.8z"/>
		</g>
	</g>
	<g>
		<g>
			<path class="st0" d="M684.8,1030.1c1-3.9,2.2-7.8,3.8-11.5c0.9-2.1,3.4-9.1,5.6-9.9c1.2,0.6,2.3,1.2,3.5,1.8
				c-0.1,1-0.2,2.1-0.3,3.1c-0.2,1.6-0.3,3.3-0.5,4.9c-0.4,3.9-0.8,7.9-1.2,11.8c-1.5,15.4-3,30.8-4.5,46.1c-0.2,1.9,2.8,1.9,3,0
				c1.1-10.8,2.1-21.6,3.2-32.4c1.1-10.9,2.9-22,3.2-33c0.1-4.4-2.9-8.5-7.5-5.4c-3.2,2.2-4.9,6.4-6.5,9.8
				c-2.1,4.5-3.7,9.1-4.9,13.9C681.4,1031.1,684.3,1031.9,684.8,1030.1L684.8,1030.1z"/>
		</g>
	</g>
	<g>
		<g>
			<path class="st0" d="M1235.5,1045.9c0.8-27.5,8.4-54.2,21.9-78c-0.9,0-1.7,0-2.6,0c3.4,6.5,4.6,13.5,3.4,20.7
				c-0.3,1.9,2.6,2.7,2.9,0.8c5.8-32.5,17.8-63.5,35.6-91.3c-0.9-0.1-1.8-0.2-2.7-0.4c3.1,10.3-0.7,21.7-2.7,31.9
				c-2.1,10.7-4.2,21.4-6.3,32.1c-4.1,21.1-8.3,42.1-12.4,63.2c-0.4,1.9,2.5,2.7,2.9,0.8c4.4-22.3,8.8-44.7,13.2-67
				c2.2-11,4.3-22,6.5-33c1.9-9.4,4.6-19.2,1.7-28.7c-0.4-1.3-2-1.4-2.7-0.4c-17.9,28-30.1,59.3-35.9,92c1,0.3,1.9,0.5,2.9,0.8
				c1.4-8,0.1-15.8-3.7-23c-0.5-1-2-1-2.6,0c-13.8,24.3-21.5,51.6-22.4,79.6C1232.4,1047.9,1235.4,1047.9,1235.5,1045.9
				L1235.5,1045.9z"/>
		</g>
	</g>
	<g>
		<g>
			<path class="st0" d="M1286.1,978.2c2.4-4.2,4.9-8.4,7.6-12.5c1.4-2,2.8-4,4.2-6c0.9-1.3,3.5-6.2,5.2-6.5c5-0.9,2.3,6.2,1.9,7.9
				c-0.5,2.6-1.1,5.1-1.6,7.7c-1,4.8-2.1,9.6-3.1,14.4c-4.4,20.1-8.9,40.2-13.7,60.3c-0.4,1.9,2.5,2.7,2.9,0.8
				c6.1-26.1,12-52.3,17.6-78.5c0.7-3.1,5.9-19.9-3.4-16.5c-4.2,1.5-7.5,7.7-9.9,11.2c-3.7,5.2-7.1,10.6-10.2,16.2
				C1282.6,978.4,1285.2,979.9,1286.1,978.2L1286.1,978.2z"/>
		</g>
	</g>
	<g>
		<g>
			<path class="st0" d="M192.3,742.5c2.1-6.1,9.3-6.2,14.6-4.7c6.3,1.8,10.7,6.7,15.7,10.7c7.7,6.1,16.7,9.1,25.3,3
				c8-5.6,13-16.3,23.1-18.6c10.7-2.5,21.1,5.6,30,10.4c8.2,4.4,17.5,8.1,26.7,4.4c11.6-4.7,17.9-16.4,30.9-18.9
				c7.4-1.4,15.1-0.3,21.7,3.3c5.6,3,10.4,7.3,15.8,10.8c8.4,5.4,17.4,7,26,1.3c10-6.6,18.6-19.4,31.8-11.4
				c8.7,5.3,15.2,15.1,26.2,15.3c1.9,0,1.9-3,0-3c-10.8-0.2-17.3-11-26.2-15.7c-9-4.7-17-1-24.2,5c-4.4,3.6-8.6,8.1-14.2,9.9
				c-6.9,2.3-13.5-0.9-19.1-4.7c-10.4-7-19.4-14.7-32.7-14.3c-6.1,0.2-12.1,1.9-17.3,5.1c-5.4,3.3-9.6,8.2-14.8,11.8
				c-11.5,8-22.8,2.3-33.6-3.8c-7.9-4.4-16.7-9.9-26.2-8.5c-10.3,1.5-15.8,10.8-23.1,17.2c-6.2,5.5-13.2,6.5-20.4,2.1
				c-5.7-3.5-10.1-9.1-16-12.2c-7.5-4-19.8-4.9-23.1,4.8C188.8,743.5,191.7,744.3,192.3,742.5L192.3,742.5z"/>
		</g>
	</g>
	<g>
		<g>
			<path class="st0" d="M337.7,691.7c3.1-12.1,17.9-6.6,24.6-1.8c6.7,4.7,13.2,11.1,21.9,11.5c14.9,0.8,21.8-16.1,35.4-18.5
				c15.2-2.6,24.6,16.8,40.1,14.9c14.6-1.8,22.1-19,37.1-19.7c15.3-0.7,31.4,15.1,46.2,5.5c1.6-1,0.1-3.6-1.5-2.6
				c-13.7,8.9-30.6-6.9-45.3-5.9c-7,0.5-12.8,4.4-18.1,8.7c-6,4.8-12.6,11.3-20.8,11.1c-14.8-0.3-23.8-18.6-39.6-14.7
				c-15.5,3.9-23.8,25-41.8,15.4c-8.5-4.5-15.3-13.4-25.5-14.4c-6.7-0.7-13.8,2.8-15.5,9.6C334.3,692.8,337.2,693.6,337.7,691.7
				L337.7,691.7z"/>
		</g>
	</g>
	<g>
		<g>
			<path class="st0" d="M1014.9,498.9c4.9-7.3,14.6-10.7,23-7.9c8.5,2.8,13.2,11.6,21.7,14.7c7.2,2.6,15.5,2.2,22.3-1.4
				c7-3.6,12.1-10.1,19-13.8c16-8.4,25.1,11.8,38.6,15.9c13.8,4.2,23.4-9.3,34.5-14.7c19.6-9.6,34.4,22.1,53.6,10.4
				c1.6-1,0.1-3.6-1.5-2.6c-10.1,6.2-20.6-2.9-29-8c-6.6-4-13.8-6.5-21.4-3.8c-13.4,4.8-24.2,22.8-39.8,13.7
				c-10.9-6.4-19.6-20.5-34.1-14.6c-7.5,3-12.8,9.7-19.6,13.9c-10.1,6.1-21.8,4-30.5-3.5c-6.4-5.5-12-10.6-21-10.2
				c-7.5,0.3-14.3,4.1-18.5,10.3C1011.2,499,1013.8,500.5,1014.9,498.9L1014.9,498.9z"/>
		</g>
	</g>
	<g>
		<g>
			<path class="st0" d="M1079.4,460.6c5.9-6,14.8-14.5,24-10.4c5.9,2.7,9.1,9.1,13.8,13.2c8.3,7.2,17.5,3.8,25.5-2
				c4.7-3.3,9.1-7.3,14.4-9.6c7.6-3.4,14.1-0.7,20.7,3.5c5.3,3.3,10.6,6.9,17,7.2c6.1,0.3,11.8-2.2,17-5.1
				c8.2-4.5,15.6-10.1,25.1-11.4c10.6-1.5,21.1,1.2,31.3,3.8c1.9,0.5,2.7-2.4,0.8-2.9c-16.2-4.1-32.1-6.9-47.5,1.4
				c-6.8,3.7-13.3,8.7-20.9,10.6c-9.1,2.2-15.8-2.9-23.2-7.3c-5-3-10.3-5.2-16.2-4.2c-5.5,1-10.3,4.3-14.7,7.5
				c-4.8,3.5-9.8,8-15.8,9.4c-7.6,1.8-12.5-3.8-17-9c-4.3-5-9.1-9.6-16.2-9.2c-8.2,0.5-14.9,6.8-20.3,12.3
				C1075.9,459.9,1078,462,1079.4,460.6L1079.4,460.6z"/>
		</g>
	</g>
	<g>
		<g>
			<path class="st0" d="M913.5,737.1c7-7.1,15.5-15,26.3-13.3c7.7,1.2,14.1,6.6,20.4,10.9c5.7,3.9,11.9,7.5,19,7.8
				c6.3,0.3,12.2-2.1,17.4-5.5c12.8-8.6,21.8-23.4,37.1-27.9c11-3.2,20.9-0.1,30.4,5.5c7,4.1,14.1,8.1,22.4,7
				c9-1.2,16.3-7.3,24.1-11.6c11.2-6.1,24.1-7.3,36.3-3.5c1.8,0.6,2.6-2.3,0.8-2.9c-9-2.8-18.5-3.1-27.6-0.7
				c-9.1,2.5-16.3,8.2-24.5,12.4c-5.1,2.6-10.5,4.3-16.2,3.1c-5-1-9.4-3.9-13.8-6.4c-7.9-4.6-15.8-7.8-25.1-7.1
				c-16.7,1.2-27.2,14-38.9,24.3c-6,5.3-12.9,10.3-21.2,10.4c-8.6,0-15.8-5.4-22.5-10.1c-6.4-4.4-13.5-9.1-21.6-8.9
				c-10.1,0.3-18.1,7.6-24.8,14.5C910,736.4,912.1,738.5,913.5,737.1L913.5,737.1z"/>
		</g>
	</g>
	<g>
		<g>
			<path class="st0" d="M137.7,275.2c4.7-6.6,10.8-12.7,18.7-15.2c7.4-2.4,14.5-0.4,20.9,3.6c9.7,6.1,18.1,15.8,30.3,16.1
				c14.9,0.4,25.8-11.9,38.2-18.1c8.2-4.1,18.1-6.4,25.8-0.2c5.3,4.2,9.1,9.8,15.2,13.1c12.1,6.4,27.4,5.4,38.4-2.7
				c1.5-1.1,0-3.7-1.5-2.6c-12.4,9.1-30.6,8.7-42-2.1c-4.9-4.6-8.8-10.1-15.6-11.9c-6-1.6-12.4-0.3-18.1,2.1
				c-14.4,5.9-27.9,23.1-45,18.9c-12.4-3.1-20.2-15-32.1-19c-14.5-4.9-27.8,5.3-35.7,16.6C134,275.3,136.6,276.8,137.7,275.2
				L137.7,275.2z"/>
		</g>
	</g>
	<g>
		<g>
			<path class="st0" d="M298.8,424.8c6.2-6.8,14.9-12.3,24.5-10c7.1,1.7,12.8,6.9,19,10.5c11.9,6.9,25.5,5.6,36.7-2.2
				c6-4.1,10.3-10.3,16.4-14.1c8.5-5.4,17.7-2.5,26,1.6c6.9,3.4,13.5,7,20.8,9.5c7.9,2.6,16,4.1,24.3,4.6c1.9,0.1,1.9-2.9,0-3
				c-9.2-0.6-18.2-2.4-26.8-5.7c-8.1-3.1-15.4-7.9-23.5-10.9c-6.5-2.4-13.5-3.1-19.9-0.1c-6.8,3.3-11.4,9.7-17.3,14.3
				c-6.9,5.4-15.9,8.7-24.8,7.4c-8.2-1.2-14.4-6.7-21.3-10.8c-13.2-7.8-26.2-4.2-36.4,6.8C295.4,424.1,297.5,426.2,298.8,424.8
				L298.8,424.8z"/>
		</g>
	</g>
	<g>
		<g>
			<path class="st0" d="M980.8,224.3c17.5-11,36.1,6.2,52.8,10.5c17.6,4.6,31.5-6.5,48-10.3c17.7-4.2,35.2,3.8,52.9,3.8
				c7.8,0,15-1.8,21.8-5.6c7.6-4.2,15-10.3,24-10.8c16.6-1,30,15.2,47,10.3c1.9-0.5,1.1-3.4-0.8-2.9c-15.3,4.4-28.5-9.6-43.5-10.4
				c-7.7-0.4-14.5,3-20.9,6.9c-8.1,4.8-15.6,9.1-25.2,9.5c-17.5,0.7-34.4-7-51.9-4.5c-18.2,2.6-33,16.5-52.2,10.7
				c-16.9-5.2-35.5-21-53.4-9.8C977.6,222.8,979.1,225.4,980.8,224.3L980.8,224.3z"/>
		</g>
	</g>
	<g>
		<g>
			<path class="st1" d="M227,550.1c1.6,9.5,13.9,10,20.9,6.7c7-3.3,12.8-10.2,21-10.3c6.8-0.1,13,4.1,19.1,6.6
				c4.9,2,10.2,3.3,15.4,1.6c6.2-2.1,10.2-7.7,15.5-11.2c16-10.5,34.3,3,48.2,10.6c1.7,0.9,3.2-1.7,1.5-2.6
				c-12-6.5-24.2-15.4-38.5-14.6c-5.8,0.3-10.9,2.4-15.4,6c-6.1,4.9-11.2,11.1-19.9,9.3c-11.3-2.3-20.5-12.1-32.7-7.2
				c-6,2.4-10.6,7.2-16.5,9.6c-5.4,2.2-14.5,1.9-15.7-5.2C229.6,547.4,226.7,548.3,227,550.1L227,550.1z"/>
		</g>
	</g>
	<g>
		<g>
			<path class="st1" d="M582,826.1c6.9-11.3,23.7,4.3,32.2,5.2c4.8,0.5,8.6-1.5,12-4.7c2.2-2.1,4.1-4.6,6.7-6.3
				c4-2.5,8.4-2,12.6-0.4c8.6,3.3,19.3,12.5,28.6,5.4c2.2-1.7,3.5-4.2,5.5-6.1c3.8-3.6,9.2-1,13.4,0.5c7.3,2.6,14.7,5.1,22,7.7
				c1.8,0.6,2.6-2.3,0.8-2.9c-7.9-2.8-15.9-5.6-23.8-8.4c-5.2-1.8-10.1-3.3-14.5,0.9c-2.6,2.5-4,5.7-7.5,7.1
				c-4.2,1.6-8.9,0-12.8-1.8c-5.8-2.7-11.2-6.8-17.8-7c-5.7-0.2-9.6,3.2-13.3,7c-2.7,2.7-5.5,5.5-9.5,5.9c-4.6,0.4-9.2-2.3-13.1-4.5
				c-7.2-3.9-18.6-8.2-24.1,0.7C578.4,826.3,581,827.8,582,826.1L582,826.1z"/>
		</g>
	</g>
	<g>
		<g>
			<path class="st1" d="M1091.5,638c3.6-9.1,16.3-3.1,22.3-0.8c6.7,2.6,13,3.3,18.9-1.5c3.4-2.7,6.1-5.8,10.1-7.8
				c4.2-2.1,8.9-3.3,13.5-3.4c9.7-0.2,15.9,5.1,24.3,8.8c6.4,2.8,12,2,17.5-2c3.1-2.3,5.9-5.2,9.3-7c3.6-1.9,7.7-2.3,11.7-2.1
				c13.2,0.7,27.1,8.4,39.7,1.2c1.7-1,0.2-3.5-1.5-2.6c-11,6.2-24-0.1-35.5-1.4c-5-0.6-10.1-0.4-14.7,1.7c-5.9,2.7-10,9-16.3,10.7
				c-7.6,2-14.3-4.8-20.7-7.6c-5.2-2.3-11.1-3.1-16.7-2.5c-5.9,0.6-11.7,2.8-16.5,6.3c-2.1,1.5-3.8,3.4-5.7,5.1
				c-4.3,3.6-9,3.7-14.1,2c-8.5-2.8-23.4-10.2-28.3,2.1C1087.9,639,1090.8,639.8,1091.5,638L1091.5,638z"/>
		</g>
	</g>
	<g>
		<g>
			<path class="st1" d="M582.2,151.3c0.1-5.8,8.3-1.3,10,0.2c1.6,1.5,3.1,3.2,4.9,4.6c3,2.2,6.5,2.9,10,1.4c4-1.7,6.8-5.4,10.1-8.1
				c4.6-3.8,9.6-3.9,15.2-2.2c7.5,2.3,15.5,7.6,23.7,5.5c4.2-1.1,6.7-4.3,9.4-7.5c7-7.9,14.8-3.5,21.6,2.3c1.5,1.3,3.6-0.9,2.1-2.1
				c-4.6-3.9-10.3-8.5-16.8-7.9c-5.6,0.6-8.2,5-11.7,8.6c-9.2,9.6-22.1-1.7-32.6-3c-4.5-0.5-8.5,0.6-12.1,3.3
				c-5.9,4.5-11,12.9-18.7,5.9c-3.5-3.2-6.2-6.9-11.3-6.9c-3.6,0.1-6.7,1.9-6.8,5.8C579.1,153.2,582.1,153.2,582.2,151.3
				L582.2,151.3z"/>
		</g>
	</g>
	<g>
		<g>
			<path class="st2" d="M356.2,583.3c-0.2-7,8.4-5.7,12.2-3.7c2.9,1.5,5.4,3.5,8.3,4.9c4.3,2,9,2.4,12.9-0.6c5.2-4,7.1-10,14.9-9.2
				c7,0.7,12.6,5.4,19.1,7.6c4.9,1.6,9.7,1.6,14.3-1c4.8-2.7,8.5-7.8,14.1-9.1c6.1-1.3,11.8,2.9,16.8,5.6c4.1,2.3,8.2,4.1,13,4.1
				c1.9,0,1.9-3,0-3c-11.3-0.2-20-13.1-31.9-9.3c-5.3,1.7-8.8,6.4-13.6,9c-8.6,4.8-16.7-2-24.6-5.1c-5.2-2.1-11.3-3.2-16.3,0.1
				c-2,1.3-3.4,3.3-5,5c-4,4.7-8.4,5.3-13.8,2.5c-4.9-2.5-9.4-6.9-15.2-6.4c-4.6,0.4-8.5,3.7-8.3,8.5
				C353.2,585.3,356.2,585.3,356.2,583.3L356.2,583.3z"/>
		</g>
	</g>
	<g>
		<g>
			<path class="st2" d="M1064.1,662.9c2.2-4.4,7.4-7,12.2-5.5c4.1,1.3,5.9,5.8,10,7.1c6.1,2,10.7-3.8,15.4-6.5
				c8.3-4.7,13.3,6.1,21.6,6.4c8.6,0.3,16.5-6.5,25.1-3.7c1.8,0.6,2.6-2.3,0.8-2.9c-9.2-3.1-16.9,4-25.9,3.6
				c-5.6-0.3-8.3-5.1-13.1-7.1c-3.1-1.3-6.1-0.9-9.1,0.6c-3.4,1.7-6,4.7-9.4,6.2c-6,2.7-8.5-3.9-13.3-6.1
				c-6.3-2.9-14.1,0.2-17.1,6.3C1060.7,663.1,1063.3,664.6,1064.1,662.9L1064.1,662.9z"/>
		</g>
	</g>
	<circle class="st2" cx="346.7" cy="328.2" r="10.5"/>
	<circle class="st2" cx="1276.3" cy="710.9" r="11"/>
	<circle class="st2" cx="352.1" cy="900.8" r="5.4"/>
	<circle class="st2" cx="1115.5" cy="313.9" r="12.1"/>
	<circle class="st2" cx="672.5" cy="577" r="6.4"/>
	<circle class="st1" cx="379.3" cy="310.1" r="7.6"/>
	<circle class="st1" cx="458.5" cy="91.9" r="13.2"/>
	<circle class="st1" cx="1003.9" cy="588.2" r="9.7"/>
	<circle class="st3" cx="603.4" cy="736.4" r="9.7"/>
</g>
<g id="stack_2">
	<path class="st4" d="M544.5,1124.2c0,0-59.5-0.6-76.3-18.5c-5.3-5.6-7.3-12.1-7.3-12.1c-0.9-2.8-1.3-5.7-1.3-8.8v-149
		c0-16.4,13.3-29.6,29.6-29.6h116.5c16.4,0,29.6,13.3,29.6,29.6v149c-0.3,6.4-1.9,15.7-8,23.8
		C615.1,1124.6,591.4,1124.7,544.5,1124.2z"/>
	<g>
		<g>
			<path class="st5" d="M460.9,924.4c8.5,9.6,20.7,13.6,32.9,15.9c15.7,2.9,32,4.7,47.9,5.7c30.7,2,63.3-1.6,88.5-20.8
				c1.5-1.2,0-3.8-1.5-2.6c-24.3,18.6-55.4,22.3-85,20.5c-15.4-0.9-30.9-2.7-46.1-5.2c-12.7-2.1-25.7-5.7-34.5-15.7
				C461.7,920.8,459.6,923,460.9,924.4L460.9,924.4z"/>
		</g>
	</g>
	<g>
		<g>
			<path class="st5" d="M459.9,959.2c9,10,22.2,13.2,34.8,16.1c16.8,3.9,33.9,7.4,51.2,7.9c16.8,0.5,32.7-2.7,48.7-7.7
				c14-4.4,28.8-8.5,40.3-18c1.5-1.2-0.6-3.3-2.1-2.1c-11.3,9.4-26.1,13.3-39.9,17.6c-15.4,4.8-30.8,7.8-47,7.3
				c-16.1-0.5-31.9-3.6-47.6-7.2c-12.9-2.9-27-5.7-36.3-16C460.7,955.6,458.6,957.8,459.9,959.2L459.9,959.2z"/>
		</g>
	</g>
	<g>
		<g>
			<path class="st5" d="M459.6,997.9c52.9,30.7,120.7,31.5,174.3,2c1.7-0.9,0.2-3.5-1.5-2.6c-52.6,29-119.3,28.2-171.2-2
				C459.4,994.3,457.9,996.9,459.6,997.9L459.6,997.9z"/>
		</g>
	</g>
	<g>
		<g>
			<path class="st5" d="M458.9,1030c3.2,13.6,20.7,18.2,32.2,21.9c16.1,5.1,32.8,8.1,49.6,9.1c16.8,1,33.8-0.2,50.3-3.4
				c15.3-3,31.5-7.2,43.1-18.3c1.4-1.3-0.7-3.5-2.1-2.1c-10.9,10.5-26.4,14.4-40.9,17.4c-15.4,3.1-31.1,4.3-46.8,3.7
				c-15.4-0.6-30.7-3-45.5-7.1c-7.6-2.1-15.3-4.6-22.6-7.8c-6.3-2.8-12.7-6.8-14.4-14C461.3,1027.3,458.5,1028.1,458.9,1030
				L458.9,1030z"/>
		</g>
	</g>
	<g>
		<g>
			<path class="st5" d="M459.4,1073.6c11.2,11.6,26.3,17.9,41.8,21.6c17.1,4.1,35,6.1,52.5,6.1c29.3,0.1,57.2-8,82.2-23.3
				c1.6-1,0.1-3.6-1.5-2.6c-24.1,14.8-50.9,22.8-79.2,22.9c-17.3,0.1-34.9-1.8-51.7-5.7c-15.5-3.5-30.7-9.5-42-21.2
				C460.2,1070.1,458.1,1072.2,459.4,1073.6L459.4,1073.6z"/>
		</g>
	</g>
</g>
<g id="stack_1">
	<path class="st4" d="M1127.2,1072.4c0,0-59.5-0.8-76.3-23.2c-5.3-7.1-7.3-15.2-7.3-15.2c-0.9-3.5-1.3-7.2-1.3-11V836.2
		c0-20.5,13.3-37.1,29.6-37.1h116.5c16.4,0,29.6,16.6,29.6,37.1V1023c-0.3,8.1-1.9,19.7-8,29.8
		C1197.9,1072.9,1174.1,1073,1127.2,1072.4z"/>
	<g>
		<g>
			<path class="st5" d="M1041.3,1027.9c22.5,21.6,54.7,28.3,84.9,30.1c32.6,1.9,66.9-4.1,91.4-27.1c1.4-1.3-0.7-3.4-2.1-2.1
				c-24,22.5-57.6,28.1-89.3,26.3c-29.4-1.7-60.8-8.1-82.7-29.2C1042,1024.4,1039.9,1026.5,1041.3,1027.9L1041.3,1027.9z"/>
		</g>
	</g>
	<g>
		<g>
			<path class="st5" d="M1041,1005.7c52.3,38.7,124.9,38.4,177-0.6c1.5-1.1,0-3.8-1.5-2.6c-24.7,18.6-55,29.2-86,29.4
				c-31.6,0.3-62.6-10.1-87.9-28.9C1040.9,1002,1039.4,1004.6,1041,1005.7L1041,1005.7z"/>
		</g>
	</g>
	<g>
		<g>
			<path class="st5" d="M1042.1,983.2c26.9,16.4,58.1,28.9,90.1,27c16.8-1,32.5-6.7,48.1-12.6c13.6-5.1,27.1-10.7,37.9-20.6
				c1.4-1.3-0.7-3.4-2.1-2.1c-11.1,10.2-25.2,15.5-39,20.8c-15.1,5.7-30.3,11-46.6,11.7c-31,1.3-60.8-10.9-86.9-26.7
				C1042,979.6,1040.5,982.2,1042.1,983.2L1042.1,983.2z"/>
		</g>
	</g>
	<g>
		<g>
			<path class="st5" d="M1041.7,957.4c55,28.7,123.9,26.4,176.8-6.1c1.6-1,0.1-3.6-1.5-2.6c-52,31.9-119.7,34.3-173.8,6.1
				C1041.5,953.9,1040,956.5,1041.7,957.4L1041.7,957.4z"/>
		</g>
	</g>
	<g>
		<g>
			<path class="st5" d="M1041.9,930c55.7,23.7,120.3,22.3,174.9-3.8c1.7-0.8,0.2-3.4-1.5-2.6c-53.5,25.6-117.3,27-171.9,3.8
				C1041.7,926.6,1040.1,929.2,1041.9,930L1041.9,930z"/>
		</g>
	</g>
	<g>
		<g>
			<path class="st5" d="M1042.4,904.2c57.4,16.7,119.5,14.1,175.2-7.3c1.8-0.7,1-3.6-0.8-2.9c-55.3,21.2-116.8,23.8-173.6,7.3
				C1041.3,900.7,1040.5,903.6,1042.4,904.2L1042.4,904.2z"/>
		</g>
	</g>
	<g>
		<g>
			<path class="st5" d="M1043.4,874.6c56.2,19.8,118.9,17.1,173.3-7.1c1.8-0.8,0.2-3.4-1.5-2.6c-53.6,23.9-115.6,26.3-171,6.8
				C1042.4,871.1,1041.6,874,1043.4,874.6L1043.4,874.6z"/>
		</g>
	</g>
	<g>
		<g>
			<path class="st5" d="M1042.4,845c56.9,19.5,120.3,16.4,175.1-8.4c1.8-0.8,0.2-3.4-1.5-2.6c-54,24.5-116.6,27.4-172.7,8.1
				C1041.4,841.4,1040.6,844.3,1042.4,845L1042.4,845z"/>
		</g>
	</g>
	<g>
		<g>
			<path class="st5" d="M1045.7,818.9c54.2,13.7,111.6,12.6,165.2-3.2c1.8-0.5,1.1-3.4-0.8-2.9c-53.2,15.6-109.9,16.7-163.6,3.2
				C1044.6,815.5,1043.8,818.4,1045.7,818.9L1045.7,818.9z"/>
		</g>
	</g>
</g>
<g id="coin_1">
	
		<ellipse transform="matrix(0.2901 -0.957 0.957 0.2901 -212.4039 1706.8445)" class="st6" cx="1044.3" cy="996.6" rx="108.7" ry="52"/>
	
		<ellipse transform="matrix(0.2901 -0.957 0.957 0.2901 -218.155 1690.7836)" class="st4" cx="1030.6" cy="992.4" rx="108.7" ry="52"/>
	<g>
		<g>
			<path class="st5" d="M1042.5,928.3c-2.4,8.8-5.1,17.5-8.1,26.2c-0.6,1.8,2.3,2.6,2.9,0.8c2.9-8.6,5.6-17.4,8.1-26.2
				C1045.9,927.2,1043,926.5,1042.5,928.3L1042.5,928.3z"/>
		</g>
	</g>
	<g>
		<g>
			<path class="st5" d="M1055,961.6c-10.6-5.6-24.2-9.8-34.8-1.8c-7.5,5.7-9.5,18-1.4,24.2c5.1,3.9,11.7,4.3,16.2,9.2
				c5.3,5.7,7.1,14.3,3.9,21.5c-6.9,15.1-27.6,15.4-35.7,1.3c-1-1.7-3.6-0.2-2.6,1.5c5.5,9.6,17.5,14.7,28.1,10.6
				c10.1-3.9,16.5-14.7,14.4-25.4c-1-5.3-3.9-10.2-8-13.7c-5.2-4.3-14.2-4.6-17.4-11c-4.1-8.1,2.2-16.4,9.9-18.9
				c8.9-2.9,18,0.7,25.9,4.8C1055.2,965.1,1056.7,962.5,1055,961.6L1055,961.6z"/>
		</g>
	</g>
	<g>
		<g>
			<path class="st5" d="M1012.8,1027.4c-2,6.6-4,13.2-6,19.8c-0.6,1.9,2.3,2.6,2.9,0.8c2-6.6,4-13.2,6-19.8
				C1016.3,1026.4,1013.4,1025.6,1012.8,1027.4L1012.8,1027.4z"/>
		</g>
	</g>
</g>
<g id="leg_right">
	<path d="M738.7,1036.9c-0.1,6.3-0.2,12.6-0.4,18.9c-10.3,5.6-21,11.9-32,19c-14.4,9.2-27.5,18.6-39.2,27.7c1.8,1.7,3.6,3.3,5.4,5
		c9.7-1.9,19.7-4,29.9-6.4c24.3-5.7,46.8-12.4,67.6-19.4c-0.4-12.3-0.8-24.7-1.2-37c-4,0-9.4-0.4-15.5-1.9
		C747.2,1041.1,742.3,1038.9,738.7,1036.9z"/>
	<path class="st3" d="M758,507.2c-1.3,10.4-3.2,26.4-5.5,45.9c-8.7,73.4-16.9,149.4-20.6,188.4c-4.9,50.9-11.8,141.6-14.1,275.9
		c5,5.6,12.9,13,24.2,18.4c27.7,13.4,54.9,5.3,62.1,2.8c0.6-23.7,1.8-57.1,4.1-97c1.1-19.9,6.7-113.1,22.9-242.4
		c4.7-37.2,11.3-85.5,20.4-142.1c15.5-23.7,23.2-50.4,13.2-64.5C851.5,474.1,805.1,473,758,507.2z"/>
	<path class="st7" d="M804.2,578.5c-0.7,10.8-1.5,21.7-2.2,32.5c-10,144.6-21,289.2-33.1,433.7c11.7-2,23.5-4.1,35.2-6.1
		c0.9-35.3,2.5-71.6,4.8-108.6c5.3-85.4,13.9-166.3,24.7-242.4c1.6-32.6,3.2-65.3,4.7-97.9C826.9,585.9,815.5,582.2,804.2,578.5z"/>
	<g>
		<g>
			<path class="st5" d="M756.5,507.2c-8,66.2-16,132.5-22.7,198.9c-6.7,66.3-12.1,132.8-15,199.4c-1.6,37.6-2.4,75.2-2.2,112.8
				c0,1.9,3,1.9,3,0c-0.4-66.7,2.4-133.3,7.3-199.8c4.9-66.5,11.7-132.9,19.3-199.2c4.3-37.4,8.8-74.8,13.3-112.2
				C759.8,505.3,756.8,505.3,756.5,507.2L756.5,507.2z"/>
		</g>
	</g>
	<g>
		<g>
			<path class="st5" d="M842.9,608.7C825,719.4,812.9,831,806.6,943c-1.8,31.8-3.1,63.7-4,95.5c-0.1,1.9,2.9,1.9,3,0
				c3.1-111.6,11.8-223.1,26.3-333.9c4.2-31.8,8.8-63.5,13.9-95.2C846,607.6,843.2,606.8,842.9,608.7L842.9,608.7z"/>
		</g>
	</g>
	<g>
		<g>
			<path class="st5" d="M716.5,1018c19.8,27.5,55.6,31.2,86.3,23.7c1.9-0.5,1.1-3.3-0.8-2.9c-29.3,7.1-64,3.9-83-22.4
				C717.9,1015,715.3,1016.5,716.5,1018L716.5,1018z"/>
		</g>
	</g>
	<g>
		<g>
			<path class="st5" d="M737.2,1036.9c0.1,4.8,1,10.6,0.2,15.4c-0.9,5.4-7.1,7-11.5,9.4c-8.7,4.7-17.2,9.8-25.6,15.1
				c-7.8,5-15.5,10.2-23.1,15.7c-3.5,2.5-13.8,7.3-11.3,13c2.7,6.4,13,2.4,17.6,1.4c9.4-2,18.7-4.2,28-6.5
				c19.9-5,39.5-10.8,58.9-17.3c1.8-0.6,1-3.5-0.8-2.9c-17,5.7-34.1,10.9-51.5,15.4c-8.7,2.3-17.4,4.4-26.1,6.4
				c-4.4,1-8.7,1.9-13.1,2.9c-1.3,0.3-2.5,0.5-3.8,0.8c-2.4,1.2-3.5,0.5-3.2-2.3c-1.3-1.8-1.1-3.1,0.8-3.8c1-0.7,2-1.5,3-2.2
				c13.9-10.3,28.5-19.8,43.6-28.4c3.8-2.2,7.6-4.2,11.4-6.3c2.8-1.5,7-2.7,8.7-5.6c1.1-1.7,1-3.6,1-5.6c0-4.8-0.1-9.6-0.2-14.4
				C740.2,1035,737.2,1035,737.2,1036.9L737.2,1036.9z"/>
		</g>
	</g>
	<g>
		<g>
			<path class="st5" d="M767.4,1044.6c0.3,12.2,0.7,24.3,1,36.5c0.1,1.9,3.1,1.9,3,0c-0.3-12.2-0.7-24.3-1-36.5
				C770.3,1042.7,767.3,1042.7,767.4,1044.6L767.4,1044.6z"/>
		</g>
	</g>
</g>
<g id="leg_left">
	<path d="M898.4,1043.6c0.9,8.2,1.7,16.4,2.6,24.6c-13.5,8-30.1,20.1-45.5,38.2c-5.5,6.5-10.2,12.9-14.1,19
		c3.4,0.2,8.6,0.2,14.8-0.4c17.6-1.7,28.8-7.3,50.4-16.6c8.2-3.5,20.7-8.8,36.5-15c-1.3-8.4-2.6-17.1-3.7-25.9
		c-2-15.3-3.5-30.1-4.7-44.4C922.5,1030,910.5,1036.8,898.4,1043.6z"/>
	<path class="st3" d="M804.6,507.9c-3.3,6.3-6.2,17.6-7,28.6c-1.4,18.8,3.3,33.8,6.6,42c6.9,3.2,13.8,6.4,20.7,9.5
		c1.6,18,3.1,36.1,4.7,54.1c4.3,49.9,8.7,99.8,13,149.7c8.4,96.9,12.8,146.2,19.4,188.7c4.2,26.8,8.3,48.7,11.1,63.1
		c3.8,0.8,9.2,1.8,15.8,2.3c9.1,0.7,22.8,1.7,37.6-3.5c16-5.6,26.5-16,32.2-22.8c-2.2-12.1-5.4-30.8-8.5-53.7
		c-6.3-46.4-8.8-84.5-12.4-160.6c-1.8-39.1-0.9-23.6-4.4-104.1c-3.4-77.4-5.5-120.4-12-176.8c-1.8-15.5-3.5-28.3-4.7-36.8
		C863,475.3,816.9,484.4,804.6,507.9z"/>
	<g>
		<g>
			<path class="st5" d="M803.4,579.8c7,3.3,14,6.5,21,9.8c1.7,0.8,3.3-1.8,1.5-2.6c-7-3.3-14-6.5-21-9.8
				C803.2,576.4,801.7,578.9,803.4,579.8L803.4,579.8z"/>
		</g>
	</g>
	<g>
		<g>
			<path class="st5" d="M823.4,588c5.2,59.8,10.4,119.5,15.6,179.3c5.1,58.6,9.2,117.5,16.5,175.9c4.1,32.5,9.2,64.9,15.3,97.1
				c0.4,1.9,3.3,1.1,2.9-0.8c-11-57.8-18.1-116-23.2-174.6c-5.1-59.1-10.3-118.2-15.4-177.3c-2.9-33.2-5.8-66.4-8.7-99.6
				C826.2,586.1,823.2,586.1,823.4,588L823.4,588z"/>
		</g>
	</g>
	<g>
		<g>
			<path class="st5" d="M917.7,506.3c8.1,66.6,11.5,133.7,14.4,200.7c2.8,67,5,134.1,10.7,200.9c3.1,37.1,7.4,74.1,13.2,110.8
				c0.3,1.9,3.2,1.1,2.9-0.8c-10.6-66.1-15.6-132.8-19-199.6c-3.4-66.7-5.1-133.5-9.3-200.1c-2.3-37.4-5.4-74.7-9.9-111.8
				C920.5,504.4,917.5,504.4,917.7,506.3L917.7,506.3z"/>
		</g>
	</g>
	<g>
		<g>
			<path class="st5" d="M871.3,1041c-1.6,7.1,10.1,6.2,14,6.4c10.7,0.4,21.4,0.5,32-1.2c16.9-2.7,33.4-10.7,42.7-25.6
				c1-1.6-1.6-3.1-2.6-1.5c-7.6,12.1-20.4,19.5-34,22.8c-8.2,2-16.6,2.7-25.1,2.8c-2.6,0-24.9,0.4-24.2-2.8
				C874.6,1040,871.7,1039.2,871.3,1041L871.3,1041z"/>
		</g>
	</g>
	<g>
		<g>
			<path class="st5" d="M897.4,1047.4c0.7,5,1.6,10.1,2.2,15.1c0.8,6.4-3.4,9.2-7.8,12.9c-6.7,5.6-13.9,10.6-20.8,15.9
				c-12.2,9.3-24,19.5-31,33.4c-0.3,0.7-0.2,1.7,0.5,2.1c7.1,3.3,14.5,0.3,21.5-1.9c9.1-2.9,18.2-5.9,27.2-9.2
				c18.2-6.5,36.1-13.7,53.7-21.5c1.8-0.8,0.2-3.4-1.5-2.6c-16.2,7.2-32.7,13.9-49.4,19.9c-7.8,2.8-15.7,5.5-23.6,8.1
				c-7.5,2.4-18.8,8.2-26.5,4.6c0.2,0.7,0.4,1.4,0.5,2.1c8.5-16.7,23.8-27.8,38.5-38.7c6.4-4.8,14.3-9.6,19.5-15.9
				c2-2.5,2.5-5,2.2-8.2c-0.5-5.6-1.6-11.3-2.5-16.8C900,1044.7,897.1,1045.5,897.4,1047.4L897.4,1047.4z"/>
		</g>
	</g>
	<g>
		<g>
			<path class="st5" d="M933.5,1038.9c2.8,18.3,5.6,36.6,8.2,55c0.3,1.9,3.2,1.1,2.9-0.8c-2.6-18.3-5.3-36.7-8.2-55
				C936.1,1036.2,933.2,1037,933.5,1038.9L933.5,1038.9z"/>
		</g>
	</g>
	<path class="st8" d="M880.8,508.5c3.9,32.4,7.6,64.8,11.1,97.2c15.9,144.9,28.7,290.1,38.4,435.7c4-1.3,9.9-3.6,16-8.3
		c6.2-4.7,10.1-9.8,12.4-13.3c-2.2-12.5-5.4-31.2-8.5-53.9c-7.2-52.7-9.4-91.6-13.3-179.6c-5-112-4.5-117.9-7.2-159.4
		c-3.4-51.8-7.6-93.9-10.4-120.6C906.4,507,893.6,507.8,880.8,508.5z"/>
</g>
<g id="hand_right">
	<path class="st3" d="M752,280.1c-3.2,2.8-5.9,6.2-10.7,16.1c-7.3,15.2-10.9,27.8-11.8,30.8c-4,14-9.5,26.5-20.4,51.6
		c-17.5,40.1-14.9,24.1-20.3,39.3c-1.4,4-4.2,12.3-11.5,15.8c-5.2,2.4-10.4,1.3-11.5,1c-5.3-1.3-8.4-4.7-14.6-11.7
		c-7.9-9.1-11.8-13.6-13.6-16.1c-5.2-7.2-13.2-17.4-24.6-29.8c-2.2-3.5-5.3-7.8-9.5-12.3c-3.7-4-6.7-6.5-12.7-11.6
		c-10.1-8.5-13-9.5-15.7-8.9c-0.2,0-3.5,0.8-4.3,3.1c-0.9,2.8,2,7,7.9,10.1c-4.8,3.5-9.1,5.4-12.1,6.4c-5,1.8-11.2,4-18.1,2.2
		c-3.3-0.9-5.8-2.4-9.8-4.9c-6.5-4-8.6-7-11.4-6.1c-2.3,0.7-3.5,3.6-3.8,5.5c-0.4,2.9,0.9,5.9,3.4,7.8c0.7,1.7,1.3,4,0.3,5.7
		c-0.9,1.4-2.3,1.4-3.1,2.5c-0.8,1.2-0.7,3.8,3.4,9.5c-0.8,0.5-3.6,2.2-3.5,4.5c0.1,1.6,1.6,2.7,4,4.3c8.2,5.8,5.9,4.8,9.1,6.7
		c3.2,1.9,9.1,5.4,17.2,7.2c11.6,2.7,21.7,0.6,27.3-1c2.2,0.1,5.5,0.7,8.7,2.6c5.4,3.3,7.5,8.8,8.7,11.5c0,0.1,5.8,8.2,17.2,24.4
		c10.6,15,15.9,22.5,21.6,27.9c7.7,7.3,14.6,13.7,25.5,15.6c9.6,1.7,17.6-1,21.3-2.3c7.9-2.8,13.4-7,21-14c8.7-8,20-18.6,33-37
		c11.3-16,17.9-29.6,20.1-34.4c6.6-14,9.6-24.4,15.8-45.1c5.3-17.9,8.2-27.8,9.9-41.9c2.4-19.9,4.4-36.1-4.1-41.6
		C772.7,268.3,759.4,273.8,752,280.1z"/>
	<g>
		<g>
			<path class="st5" d="M755.1,274.8c-10.5,9.8-16.8,22.8-21.6,36.2c-5.7,15.6-10.6,31.4-16.9,46.8c-6.9,17-14.8,33.5-23.6,49.6
				c-3.9,7.2-7.7,15.6-13.1,21.9c-8,9.2-18.2,2.6-24.8-4.4c-14.6-15.4-27.7-32.5-41.4-48.7c-1.2-1.5-3.4,0.7-2.1,2.1
				c13.2,15.6,26.1,31.6,39.7,46.9c4.6,5.2,10.6,10.9,17.8,11.8c6.5,0.7,11.4-3.1,14.9-8.2c10.6-15.1,18.7-32.8,26.4-49.5
				c7.8-16.8,14.6-34,20.4-51.5c6.1-18.2,11.9-37.3,26.3-50.8C758.7,275.6,756.5,273.5,755.1,274.8L755.1,274.8z"/>
		</g>
	</g>
	<g>
		<g>
			<path class="st5" d="M614.5,376.6c-3.2-7.6-9.5-12.7-15.5-18.1c-5.8-5.3-11.7-12-18.9-15.3c-3.7-1.7-9.1-2.1-10.5,2.7
				c-2,6.8,6.3,10.3,9.8,14.3c1.3,1.4,3.4-0.7,2.1-2.1c-1.2-1.3-2.4-2.4-3.8-3.5c-1.3-1-3.4-2-4-3.6c-1.2-1.1-0.8-2.2,1.1-3.4
				c0.3-2.2,1.1-2.9,2.4-2.3c1.9-0.2,5.2,2.7,6.7,3.8c2.1,1.6,4,3.3,6,5.1c7.5,6.8,17.8,13.8,21.8,23.3
				C612.4,379.1,615.3,378.3,614.5,376.6L614.5,376.6z"/>
		</g>
	</g>
	<g>
		<g>
			<path class="st5" d="M578.7,357.4c-7.5,3-15.8,7.6-24.1,7.8c-4.4,0.1-8.8-1.1-12.5-3.5c-2.8-1.7-4.8-4.3-7.5-6.2
				c-3.4-2.4-8.8-3.4-11.5,0.5c-3.1,4.3,1,9.1,4,12c1.4,1.3,3.5-0.8,2.1-2.1c-1.3-1.2-2.8-2.6-3.4-4.2c-1.3-3.4,1.4-5.9,4.7-5.1
				c3,0.8,5.1,3.7,7.3,5.5c3.4,2.8,7.5,4.7,11.8,5.5c10.4,1.9,20.6-3.7,29.9-7.5C581.2,359.5,580.5,356.6,578.7,357.4L578.7,357.4z"
				/>
		</g>
	</g>
	<g>
		<g>
			<path class="st5" d="M525.7,390.5c1.3-1.9,2.8-2.5,4.5-2c0.8,0.2,1.6,0.4,2.4,0.6c1.3,0.4,2.7,0.8,4,1.2c2.9,1,5.7,2.1,8.6,3.1
				c5.3,1.8,10.6,3.1,16.3,2.7c1.9-0.1,1.9-3.1,0-3c-11.2,0.8-20.6-5.8-31.3-7.6c-2.4-0.4-5.4-0.6-7.1,1.6c-1.4,1.8-1.1,4.1,0.5,5.6
				C525,394,527.1,391.8,525.7,390.5L525.7,390.5z"/>
		</g>
	</g>
	<g>
		<g>
			<path class="st5" d="M529.1,385.5c-0.7-1.7-2.3-4.2-2.4-6c-1.3-1.7-0.6-2.6,2.1-2.6c0.4,0.2,0.7,0.5,1.1,0.7
				c1.9,0.6,3.9,2.3,5.8,3.2c1.4,0.6,2.8,1.1,4.2,1.6c6.9,2.1,14.1,2.2,21.1,0.6c1.9-0.4,1.1-3.3-0.8-2.9c-5.9,1.4-12,1.4-17.9-0.2
				c-2.8-0.7-5.5-1.8-8-3.2c-1.8-1-3.4-2.5-5.3-3.2c-2.2-0.8-5-0.4-5.9,2c-1.1,3.1,2.2,8,3.3,10.7
				C526.9,388.1,529.8,387.3,529.1,385.5L529.1,385.5z"/>
		</g>
	</g>
	<g>
		<g>
			<path class="st5" d="M529.3,373.1c-0.7-1.6-0.9-3.1-0.8-4.8c-0.5,0.5-1,1-1.5,1.5c4.5-0.6,7.8,2.3,11.6,4.2
				c2.8,1.4,5.7,2.2,8.8,2.7c6.7,1,13.4,0.3,20.1-0.5c1.9-0.2,1.9-3.2,0-3c-7.4,0.9-15.1,1.8-22.4,0c-6.2-1.6-11.4-7.2-18.1-6.3
				c-0.8,0.1-1.4,0.6-1.5,1.5c-0.1,2.1,0.1,3.7,0.9,5.6C527.1,375.6,530,374.9,529.3,373.1L529.3,373.1z"/>
		</g>
	</g>
	<g>
		<g>
			<path class="st5" d="M523.1,391.5c14.1,17,37.9,24,59,17.7c1.8-0.6,1.1-3.5-0.8-2.9c-20.2,6.1-42.6-0.7-56.1-16.9
				C524,387.9,521.9,390,523.1,391.5L523.1,391.5z"/>
		</g>
	</g>
	<g>
		<g>
			<path class="st5" d="M580.6,407.6c6.4-1,10.6,5.5,13.7,9.9c3.7,5.2,7.4,10.5,11.1,15.7c6.6,9.4,13.1,18.9,19.9,28.1
				c10,13.3,22.7,27.7,40.2,30.1c19.8,2.6,36.4-12,49.4-24.9c14.2-14.1,26.4-30.1,36.4-47.3c11.5-19.9,19.9-41.5,25-63.9
				c0.4-1.9-2.5-2.7-2.9-0.8c-9,39.3-28.4,75.9-56.1,105.2c-13.7,14.4-32.4,33-54.2,28.3c-18.9-4.2-31.4-22.5-41.8-37.3
				c-7.4-10.5-14.8-21-22.2-31.5c-4.6-6.6-10-15.9-19.3-14.5C577.9,405,578.7,407.9,580.6,407.6L580.6,407.6z"/>
		</g>
	</g>
	<path class="st9" d="M586.5,404.3c6.9,5.2,13.9,10.4,20.8,15.5c2,5.1,15.7,38.4,47.7,46.4c14.4,3.6,26.4,0.6,32.9-1.1
		c44.5-11.8,66.3-58.2,71-68.8c-10,23.7-21.4,41.1-30,52.7c-10.5,14.1-19.4,22.8-29.8,29.9c-8.8,6-15.4,10.4-24.8,11.1
		c-16,1.2-28.4-9.2-36.5-16c-10-8.3-13.7-15-29.4-38.2C598.9,421.8,591.1,410.8,586.5,404.3z"/>
	<path class="st10" d="M478.8,519.6"/>
</g>
<g id="torso">
	<path class="st1" d="M753.7,271.1c5.9-4.7,44.8-35.1,95.9-25.1c31.4,6.2,51.5,24.4,59.5,32.6c5.4,19.7,10.4,44.9,11.6,74.3
		c1.6,38.8-3.7,71.4-9.6,94.9c2.7,19.4,5.3,38.8,8,58.2c-25.8,6.7-62.2,12.9-105.3,9.6c-21.5-1.6-40.5-5.3-56.6-9.6
		c2.8-41-0.7-73.6-4.6-96.3c-6.1-35.4-17.7-60.8-11.7-98.2C743.8,293.9,749.5,279.9,753.7,271.1z"/>
</g>
<g id="coins">
	<ellipse class="st4" cx="464.6" cy="252.2" rx="31.4" ry="35.2"/>
	<ellipse class="st4" cx="587.4" cy="275.7" rx="19.9" ry="36"/>
	<ellipse class="st4" cx="723.2" cy="356.4" rx="25.7" ry="30.3"/>
	<g>
		<g>
			<path class="st5" d="M459.6,228.4c0.2,3.1,0.4,6.2,0.6,9.3c0.1,1.9,3.1,1.9,3,0c-0.2-3.1-0.4-6.2-0.6-9.3
				C462.5,226.5,459.5,226.5,459.6,228.4L459.6,228.4z"/>
		</g>
	</g>
	<g>
		<g>
			<path class="st5" d="M469.5,237.5c-7-2.8-18.8,1.9-16.8,11.2c0.8,3.8,4.5,4.3,7.8,4.1c4.8-0.3,9.4,2.2,9.6,7.6
				c0.2,5.3-10.2,10.2-13.7,5c-1.1-1.6-3.7-0.1-2.6,1.5c5.2,7.8,20.2,2.2,19.2-7.2c-0.4-4-3.1-8.4-7.1-9.7c-3.1-1-10.9,2.2-10.1-4
				c0.8-6.1,8.5-7.4,12.9-5.6C470.5,241.1,471.3,238.2,469.5,237.5L469.5,237.5z"/>
		</g>
	</g>
	<g>
		<g>
			<path class="st5" d="M460.6,268.8c0.3,2.6,0.6,5.3,1,7.9c0.2,1.9,3.2,1.9,3,0c-0.3-2.6-0.6-5.3-1-7.9
				C463.4,266.9,460.4,266.9,460.6,268.8L460.6,268.8z"/>
		</g>
	</g>
	<g>
		<g>
			<path class="st5" d="M583.7,253.4c0.5,3.1,0.6,6.2,0.5,9.3c-0.1,1.9,2.9,1.9,3,0c0.1-3.4-0.1-6.8-0.6-10.1
				C586.3,250.7,583.4,251.6,583.7,253.4L583.7,253.4z"/>
		</g>
	</g>
	<g>
		<g>
			<path class="st5" d="M591.5,262c-6.6-4-14.6,3.3-13.6,10.3c0.4,2.8,2.2,5.4,4.9,6.3c3.7,1.4,9.5-0.9,9.1,5.7
				c-0.3,4.4-7.5,9.6-10,3.7c-0.8-1.8-3.3-0.2-2.6,1.5c3.2,7.4,13.5,3.4,15.4-2.8c1-3.2,0-6.8-2.6-9c-2-1.7-3.6-1.3-6-1.7
				c-10.1-1.6-3-15.6,3.9-11.4C591.6,265.6,593.2,263,591.5,262L591.5,262z"/>
		</g>
	</g>
	<g>
		<g>
			<path class="st5" d="M584.9,292.4c0.5,3,0.5,6,0,9c-0.3,1.9,2.6,2.7,2.9,0.8c0.6-3.6,0.6-7,0-10.6
				C587.5,289.7,584.6,290.5,584.9,292.4L584.9,292.4z"/>
		</g>
	</g>
	<g>
		<g>
			<path class="st5" d="M719.9,334.3c0.6,3.1,0.9,6.2,0.9,9.4c0,1.9,3,1.9,3,0c0-3.4-0.4-6.8-1-10.2
				C722.4,331.6,719.5,332.4,719.9,334.3L719.9,334.3z"/>
		</g>
	</g>
	<g>
		<g>
			<path class="st5" d="M728.1,344.3c-5.8-2.6-14.6,0.2-14.7,7.6c0,3.2,1.8,5.8,5,6.2c2.8,0.3,5.9-1.3,8.3,1c5.5,5.3-4.3,13-9.1,6.4
				c-1.1-1.5-3.7-0.1-2.6,1.5c4.5,6.2,14.8,5.3,16.1-3.1c0.6-3.7-1.5-7.3-5-8.7c-1-0.4-1.8-0.4-2.8-0.6c-2.8-0.4-0.7,0.9-4.4-1.3
				c-2.7-0.5-3.3-1.9-1.7-4c0.7-1.1,1.6-1.9,2.8-2.4c2.2-1.1,4.3-1.1,6.6-0.1C728.3,347.7,729.8,345.1,728.1,344.3L728.1,344.3z"/>
		</g>
	</g>
	<g>
		<g>
			<path class="st5" d="M720.8,371c0,2.5,0,5,0,7.4c0,1.9,3,1.9,3,0c0-2.5,0-5,0-7.4C723.8,369.1,720.8,369.1,720.8,371L720.8,371z"
				/>
		</g>
	</g>
</g>
<g id="ahnd_left">
	<path class="st3" d="M904.8,276.5c-3,0.8-6.4,4.1-9.2,16.6c-3,13.5-2.3,24.5-2.1,28.6c1.4,24.3-0.3,16,1.3,38.7
		c1.7,25.6,4.5,45.6,6.3,58.2c1.1,7.7,2.1,14.1,2.8,18.7c-7.1,6-14.8,12.1-23.1,18.2c-6.9,5.1-13.6,9.7-20.2,14
		c-2.4-0.5-4.9-1.1-7.4-1.8c-5.4-1.4-10.5-2.9-15.4-4.4c0.5-13.1,1-26.1,1.6-39.2c-3.4-1.2-8.8-2.8-15.5-3.9
		c-6.5-1.1-13.5-1.6-36.8-0.3c-5.6,0.3-13.1,0.8-22.1,1.5c-1.3,2.7-2.6,5.3-3.9,8c-9.3,1.1-18.6,2.2-27.9,3.3
		c1.4,6.7,2.6,12.2,3.5,16.1c6.1,26.4,9.6,33.6,14.5,39.7c2.6,3.2,5,5.4,6.6,6.7c8.7,1.4,17.4,2.8,26,4.1c2.9,3.1,5.9,6.4,9.1,9.6
		c3.6,3.6,7.1,7,10.6,10.2c-0.4-0.2-5.7-2.7-10.4,0.2c-2.3,1.4-5.2,4.5-4.5,6.9c0.9,3,6.9,3.6,14.3,4.3c6.2,0.6,12.7,1.2,21.2-0.6
		c9.3-2,15.6-5.7,16.9-6.5c11.6-7,17.6-17.1,20.2-22.4c3-0.5,7.3-1.2,12.4-2.6c17.5-4.8,29.3-12.9,38-18.9
		c12.1-8.4,20.3-14.2,26.9-25.5c3.4-5.8,5.1-11.2,6.2-14.9c0.5-6.8,1-15.7,0.9-26c0-8.6-0.5-27.8-4.6-53.1
		c-4.3-26.1-5.5-16-15.5-58.3c-1.3-5.3-4.7-19.9-14.6-24.4C907.6,275.9,905.5,276.3,904.8,276.5z"/>
	<g>
		<g>
			<path class="st5" d="M906,275.7c11.7,7.2,16.3,21.1,20.5,33.4c4.8,14,8.6,28.4,11.5,43c5.8,29.6,7.4,60,5,90
				c-0.2,1.9,2.8,1.9,3,0c2.6-31.6,0.7-63.4-5.8-94.5c-3.3-15.7-7.7-31.2-13.2-46.3c-4-10.9-9.1-21.9-19.4-28.2
				C905.8,272.1,904.3,274.7,906,275.7L906,275.7z"/>
		</g>
	</g>
	<g>
		<g>
			<path class="st5" d="M904.6,272.1c-8.2,6.9-11.2,17.1-12.3,27.4c-1.5,14.4-0.7,29.3-0.1,43.8c1.2,31,4.7,61.8,10.3,92.3
				c0.3,1.9,3.2,1.1,2.9-0.8c-5.3-28.9-8.6-58.2-10-87.6c-0.6-13.7-1.1-27.4-0.5-41.1c0.5-11.6,2.4-24,11.8-31.9
				C908.2,273,906.1,270.9,904.6,272.1L904.6,272.1z"/>
		</g>
	</g>
	<g>
		<g>
			<path class="st5" d="M902.9,436.2c-13,12.4-27.4,23.1-43,32c-1.7,1-0.2,3.6,1.5,2.6c15.8-9.1,30.4-20,43.7-32.5
				C906.4,437,904.3,434.9,902.9,436.2L902.9,436.2z"/>
		</g>
	</g>
	<g>
		<g>
			<path class="st5" d="M862.9,501.9c17.9-2.1,34.2-10,48.8-20.5c13.5-9.7,28.6-21.5,33.5-38.1c0.6-1.9-2.3-2.6-2.9-0.8
				c-4.8,16.2-20.2,27.9-33.5,37.3c-13.7,9.7-29.1,17.2-45.9,19.1C861,499.1,861,502.1,862.9,501.9L862.9,501.9z"/>
		</g>
	</g>
	<g>
		<g>
			<path class="st5" d="M859.9,467.5c-8.8-0.6-19.3-9.1-28-4.5c-2.6,1.4-3.7,3.8-2.4,6.6c2.2,4.7,9.9,3.6,11.2,8.5
				c0.5,1.9,3.4,1.1,2.9-0.8c-0.6-2.1-1.7-3.5-3.5-4.7c-1.1-0.7-2.6-0.8-3.7-1.5c-2.3-0.6-2.7-2.6-1.1-6.1c1.7-0.3,3.4-0.3,5,0.1
				c6.8,1.1,12.7,4.9,19.7,5.4C861.8,470.7,861.8,467.7,859.9,467.5L859.9,467.5z"/>
		</g>
	</g>
	<g>
		<g>
			<path class="st5" d="M841.4,479.5c-4.5,3.5-10.9,2.6-16.3,2.6c-5.4,0-10.9,0-16.3,0c-5.8,0-11.5,0-17.3,0c-3.5,0-7.9-0.4-11,1.7
				c-4.7,3.3-3.3,9.1,1.9,10.5c10.7,2.8,22.4,3.7,33.3,5.5c1.9,0.3,2.7-2.6,0.8-2.9c-8.8-1.4-17.7-2.9-26.5-4.3
				c-1.7-0.3-4.1-0.2-5.7-0.9c-2-0.1-3.2-1.4-3.4-4.1c1.2-0.7,2.3-1.5,3.5-2.2c3.7-1.4,9.7-0.3,13.7-0.3c8.3,0,16.6,0,25-0.1
				c6.5,0,14.2,1.1,19.7-3.1C844.5,481,843,478.4,841.4,479.5L841.4,479.5z"/>
		</g>
	</g>
	<g>
		<g>
			<path class="st5" d="M787,495.3c5.6,7.9,13.4,13.4,22.7,15.9c1.9,0.5,2.7-2.4,0.8-2.9c-8.6-2.3-15.8-7.3-21-14.5
				C788.5,492.2,785.9,493.7,787,495.3L787,495.3z"/>
		</g>
	</g>
	<g>
		<g>
			<path class="st5" d="M785.6,494.3c-3.8,11.2,11.2,20.3,19,25c1.6,1,3.2-1.6,1.5-2.6c-6.5-4-20.8-12.3-17.6-21.7
				C789.1,493.3,786.2,492.5,785.6,494.3L785.6,494.3z"/>
		</g>
	</g>
	<g>
		<g>
			<path class="st5" d="M804,517.7c-4.4-0.9-9-1.5-12.9,1.1c-2.5,1.6-4.8,4.8-3.9,7.9c1,3.3,4.9,3.8,7.8,4.2
				c6.6,0.9,13.3,1.7,19.9,1.5c20.3-0.4,38.9-12.2,47.7-30.6c0.8-1.7-1.8-3.3-2.6-1.5c-6,12.5-16.8,22.3-30,26.6
				c-7.3,2.4-15,2.8-22.7,2.3c-3.8-0.3-7.6-0.7-11.4-1.2c-3,0.3-4.8-1.2-5.3-4.7c0.8-0.8,1.7-1.6,2.5-2.3c3-1.8,6.8-1,10-0.4
				C805.1,521,805.9,518.1,804,517.7L804,517.7z"/>
		</g>
	</g>
	<g>
		<g>
			<path class="st5" d="M731.8,433.6c0.5,8.1,3.5,16.2,6,23.9c2.8,8.6,5.9,17.1,9.4,25.4c2.2,5.4,3.9,11.9,10.1,13.7
				c7.7,2.2,16.6,2.4,24.5,3.5c1.9,0.3,1.9-2.7,0-3c-7.1-1-14.5-1.5-21.6-2.9c-8.2-1.6-10.3-12.2-12.9-19
				c-2.5-6.4-4.8-12.9-6.9-19.4c-2.3-7.1-5.2-14.7-5.7-22.2C734.7,431.7,731.7,431.7,731.8,433.6L731.8,433.6z"/>
		</g>
	</g>
	<g>
		<g>
			<path class="st5" d="M733.2,434.3c22.9-2.4,45.9-2.7,68.9-1c-0.5-0.4-1-0.7-1.4-1.1c4.1,15,8.2,29.9,12.4,44.9
				c0.5,1.9,3.4,1.1,2.9-0.8c-4.1-15-8.2-29.9-12.4-44.9c-0.2-0.7-0.8-1.1-1.4-1.1c-23-1.8-46-1.4-68.9,1
				C731.3,431.5,731.3,434.5,733.2,434.3L733.2,434.3z"/>
		</g>
	</g>
	<g>
		<g>
			<path class="st5" d="M762.5,429.8c0.5-2.8,0.8-6.2,4.2-7.4c2.1-0.8,5.2-0.4,7.4-0.5c4.9-0.2,9.8-0.4,14.7-0.4
				c9.2-0.2,18.4-0.1,27.5,0.1c4.6,0.1,9.2,0.3,13.8,0.5c3.3,0.2,6.9-0.7,8,3.5c0.4,1.5-0.1,3.6-0.1,5.1c-0.3,9.7-0.6,19.4-0.9,29
				c-0.1,1.9,2.9,1.9,3,0c0.2-6.5,0.4-12.9,0.6-19.4c0.2-5,1.5-11.4,0.3-16.4c-0.7-2.9-2.6-4.1-5.5-4.6c-5.9-0.9-12.2-0.6-18.2-0.8
				c-12.8-0.3-25.6-0.3-38.3,0.1c-4.3,0.1-10.8-0.8-14.8,1.4c-3.2,1.8-4,5.5-4.6,8.9C759.3,430.9,762.2,431.7,762.5,429.8
				L762.5,429.8z"/>
		</g>
	</g>
	<g>
		<g>
			<path class="st5" d="M832.8,427.3c-0.2,9.2-0.8,18.3-1.9,27.5c-0.2,1.9,2.8,1.9,3,0c1.1-9.1,1.7-18.3,1.9-27.5
				C835.9,425.4,832.9,425.4,832.8,427.3L832.8,427.3z"/>
		</g>
	</g>
	<path class="st11" d="M905.7,273.2c3.5,10.5,8.1,25.6,11.7,44.2c8.8,45.5,6,79.4,4.7,89.5c-3.4,25.6-4.1,38.6-13.4,52.8
		c-15.2,23.2-39.7,32-51.2,35.2c-4.4,5.9-12.7,15.3-25.9,22.8c-17.1,9.6-33.2,10.7-41,10.7c5.5,1.8,16.9,4.5,30.7,1.7
		c4.4-0.9,18.3-4,30-16c5-5.1,8-10.3,9.8-14c8.9-1.3,20.3-4,32.6-9.8c26.8-12.6,41.9-32.6,48.8-43.1c1.2-6.2,2.5-14.8,3.2-25.2
		c1.4-20.9-0.8-36.7-3.3-53.3c-1.6-11.3-4.6-23.4-10.4-47.7c-3.1-12.9-5.3-20.9-11-30C915.7,282.5,909.8,276.8,905.7,273.2z"/>
	<path class="st12" d="M763.7,430.8c18.5,0.6,37,1.1,55.4,1.7c2.4,17.1,4.8,34.2,7.2,51.2c-3.9,0-7.8,0-11.7,0
		c-4.1-17.3-8.3-34.5-12.4-51.8C789.3,431.5,776.5,431.2,763.7,430.8z"/>
</g>
<g id="head">
	<path class="st3" d="M774.1,121c-5.3,6-8.1,14.1-10.3,20.5c-1.3,3.8-5.3,16.1-4.7,34.1c0.6,17.5,1.3,39.7,17.7,55.6
		c11.9,11.5,27,14.7,36.7,15.5c0.1,1.2,1.2,10.3,7.5,13.1c3.7,1.6,7.7,0.4,11.8-1.5c16-7.5,25.7-21.5,28-24.9
		c8.7-13,12.4-24.2,16.8-37.8c6.3-19.7,9.4-29.8,6.3-42.5c-2.7-11-8.7-18.2-11-21C849,104,793.9,98.6,774.1,121z"/>
	<path class="st11" d="M843.6,158.4c0.2,5,0.2,11.7-0.8,19.5c-0.4,3.5-2.1,15.2-7.7,29.4c-6.5,16.6-15.6,29.4-23.4,38.4
		c4.5-1.7,9.8-4.2,15.5-8c3.5-2.3,6.4-4.7,8.9-7c2.1,7.2,4.3,14.4,6.4,21.6c2.4-2.1,4.8-4.2,7.2-6.3c-2.4-7.5-4.8-15.1-7.2-22.6
		c3-3.1,7.2-8.1,10.5-15.1c3-6.4,4.3-12.3,4.8-16.4c1,0.6,2.7,1.3,4.7,1.3c4.1-0.1,6.8-3.3,8.8-5.7c1.4-1.6,5.6-6.8,6.1-14.8
		c0.2-2.4,0.7-9.7-4.2-16.2c-3.6-4.7-11.4-10.8-19.6-8.1C846.9,150.6,844.2,157.1,843.6,158.4z"/>
	<path class="st2" d="M759.9,171.2c-1.5-1.1-19.4-14.5-18.5-36.8c0.9-23.1,21.1-34.8,24.8-36.7c14.8-8.1,34.6-8.6,48.7,1.2
		c5.2,3.6,8.6,7.9,10.7,11.1c-6.5-0.9-25.1-2.5-41.7,9.1c-1.9,1.4-7,5.1-12,11.6C760,146.4,759.6,164,759.9,171.2z"/>
	<path class="st2" d="M798.8,104.3c2.9,2.7,7.5,7,12.4,12.8c18.3,21.6,20.7,38,34.7,42.1c3,0.9,7.7,1.5,14.3-0.5
		c1.3-0.4,8-2.3,12.7,1.4c6.8,5.2,3.4,16.8,2.7,19.3c-0.9,3-2.9,10.1-9.5,12.8c-3.6,1.4-7,1-8.7,0.6c-0.8,4.3-2.1,9.7-4.5,15.6
		c-3,7.2-6.6,12.8-9.7,16.8c0.7,3.6,1.9,8.8,4.1,14.8c4.2,11.6,9.1,24.9,21.4,32.7c1.4,0.9,17.9,11,33.9,4.5
		c20.3-8.2,23.2-36.1,23.9-43.4c3-29.6-14.4-51.9-19.5-57.9c-1-7.4-2.8-17.9-6.3-30.2c-6.3-21.8-9.4-32.7-18.2-41.3
		c-16.8-16.5-45.4-18.3-66.1-10.4C808.5,96.9,802.6,101.1,798.8,104.3z"/>
	<path class="st2" d="M760.1,187.2c-7.9,14.4-11.2,27.3-12.6,35.9c-2.2,13.1-5.4,32,4.9,49.5c3,5.1,9,15.3,20.8,18.5
		c14.4,3.9,32.1-3.8,38.7-18.5c5.6-12.4,0.8-24.4-0.2-26.9c-4.2-0.6-10.1-1.9-16.6-4.9c0,0-7.9-3.7-14.7-10
		C764.4,216.1,760.6,190.9,760.1,187.2z"/>
	<g>
		<g>
			<path class="st5" d="M764.6,134.5c-5.4,14.3-8,29.8-6.9,45.1c1.1,14.7,4.3,30,12.8,42.2c8.3,11.9,20.7,20.3,34.5,24.4
				c4.6,1.4,6.7,1,11.2-0.9c5.9-2.5,11.5-5.9,16.6-9.9c13.4-10.6,22.5-25.7,26-42.3c0.4-1.9-2.5-2.7-2.9-0.8
				c-2.9,13.8-9.7,26.5-19.9,36.3c-4.9,4.7-10.5,8.7-16.5,11.8c-3.7,1.9-7.8,4.6-12,3.4c-13.4-3.7-25.7-11.5-34-22.9
				c-8.3-11.4-11.5-25.7-12.8-39.5c-1.5-15.7,1.1-31.5,6.6-46.2C768.2,133.5,765.3,132.7,764.6,134.5L764.6,134.5z"/>
		</g>
	</g>
	<g>
		<g>
			<path class="st5" d="M856.8,193c10.9,7.6,20.5-9.9,21.8-18.6c1.7-10.8-7.6-23.7-19.1-17c-1.7,1-0.2,3.6,1.5,2.6
				c10.3-6,16.4,7.3,14.3,15.7c-1.5,6.2-8.7,20.4-17,14.7C856.7,189.3,855.2,191.9,856.8,193L856.8,193z"/>
		</g>
	</g>
	<g>
		<g>
			<path class="st5" d="M795.6,146.8c-0.8,17.7-0.6,35.4,0.5,53.1c0.1,1.3,2.2,2.3,2.8,0.8c2.3-5.4,4.6-10.8,6.8-16.1
				c0.7-1.8-1.8-3.3-2.6-1.5c-2.3,5.4-4.6,10.8-6.8,16.1c0.9,0.3,1.9,0.5,2.8,0.8c-1.2-17.7-1.3-35.4-0.5-53.1
				C798.7,144.9,795.7,144.9,795.6,146.8L795.6,146.8z"/>
		</g>
	</g>
	<g>
		<g>
			<path class="st5" d="M793.7,212.8c10.7,4.1,19.3-4.4,25.1-12.4c1.1-1.6-1.5-3.1-2.6-1.5c-5,6.9-12.3,14.6-21.7,11
				C792.7,209.2,791.9,212.1,793.7,212.8L793.7,212.8z"/>
		</g>
	</g>
	<g>
		<g>
			<path class="st5" d="M822.4,184.5c1.9,0,1.9-3,0-3C820.4,181.5,820.4,184.5,822.4,184.5L822.4,184.5z"/>
		</g>
	</g>
	<g>
		<g>
			<path class="st5" d="M834.2,179.6c1.9,0,1.9-3,0-3C832.3,176.6,832.3,179.6,834.2,179.6L834.2,179.6z"/>
		</g>
	</g>
	<g>
		<g>
			<path class="st5" d="M832.8,190.8c1.9,0,1.9-3,0-3C830.9,187.8,830.9,190.8,832.8,190.8L832.8,190.8z"/>
		</g>
	</g>
	<g>
		<g>
			<path class="st5" d="M771.5,184.5c1.9,0,1.9-3,0-3C769.6,181.5,769.6,184.5,771.5,184.5L771.5,184.5z"/>
		</g>
	</g>
	<g>
		<g>
			<path class="st5" d="M781.3,184.5c1.9,0,1.9-3,0-3C779.3,181.5,779.3,184.5,781.3,184.5L781.3,184.5z"/>
		</g>
	</g>
	<g>
		<g>
			<path class="st5" d="M779.2,193.6c1.9,0,1.9-3,0-3C777.2,190.6,777.2,193.6,779.2,193.6L779.2,193.6z"/>
		</g>
	</g>
	<g>
		<g>
			<path class="st5" d="M776.3,130.8c3.4-5.7,11.2-7.3,16.7-3.5c1.6,1.1,3.1-1.5,1.5-2.6c-6.8-4.7-16.5-2.5-20.8,4.5
				C772.7,131,775.3,132.5,776.3,130.8L776.3,130.8z"/>
		</g>
	</g>
	<g>
		<g>
			<path class="st5" d="M821.4,127.3c6.5-1.5,13.3,0.8,17.4,6.1c1.2,1.5,3.8,0,2.6-1.5c-4.9-6.4-12.8-9.4-20.8-7.5
				C818.7,124.8,819.5,127.7,821.4,127.3L821.4,127.3z"/>
		</g>
	</g>
	<ellipse class="st5" cx="779.7" cy="160.4" rx="3.3" ry="7.2"/>
	<ellipse class="st5" cx="825.7" cy="160.4" rx="3.3" ry="7.2"/>
	<g>
		<g>
			<path class="st5" d="M812.1,247.4c1.7,3.9,3.9,11,7.7,13.4c2.6,1.6,6.7,0.6,9.5,0c8.7-2,16-7.6,20.7-15.1c1-1.7-1.6-3.2-2.6-1.5
				c-3.8,6.3-9.7,11-16.7,13.2c-3.8,1.2-8,2.4-10.8-1.1c-2.2-2.8-3.7-7-5.1-10.3C813.9,244.1,811.3,245.7,812.1,247.4L812.1,247.4z"
				/>
		</g>
	</g>
	<g>
		<g>
			<path class="st5" d="M841.8,225.5c1.1,6.3,2.9,12.4,5.5,18.3c0.8,1.8,3.4,0.2,2.6-1.5c-2.5-5.6-4.2-11.5-5.2-17.6
				C844.4,222.8,841.5,223.6,841.8,225.5L841.8,225.5z"/>
		</g>
	</g>
</g>
</svg>
